<svg version="1.1" xmlns="http://www.w3.org/2000/svg" viewBox="0 0 1032 870" width="1032" height="870"><!-- svg-source:excalidraw --><metadata></metadata><defs><style class="style-fonts">
      </style></defs><rect x="0" y="0" width="1032" height="870" fill="#ffffff"></rect><g stroke-linecap="round" transform="translate(66 36) rotate(0 150 39)"><path d="M19.5 0 C87.82 -2.61, 155.23 -2.5, 280.5 0 C291.41 2.8, 302.48 6.4, 300 19.5 C298.26 30.33, 301.38 42.4, 300 58.5 C298.03 73.9, 292.79 79.82, 280.5 78 C200.88 79.41, 126.34 81.83, 19.5 78 C7.84 75.15, -2.27 74.02, 0 58.5 C2.6 40.48, -1.24 31.23, 0 19.5 C-1.41 9.62, 7.57 -0.29, 19.5 0" stroke="none" stroke-width="0" fill="#a5d8ff"></path><path d="M19.5 0 C87.73 -1.62, 156.67 -1.37, 280.5 0 M19.5 0 C112.44 -2.25, 204.27 -1.81, 280.5 0 M280.5 0 C293.49 -0.13, 299.29 5.2, 300 19.5 M280.5 0 C294.57 -0.04, 300.95 6.48, 300 19.5 M300 19.5 C300.71 28.92, 298.53 40.98, 300 58.5 M300 19.5 C299.83 31.48, 299.19 46.34, 300 58.5 M300 58.5 C300.11 70.14, 293.91 77.73, 280.5 78 M300 58.5 C297.9 73.32, 292.74 80.12, 280.5 78 M280.5 78 C188.61 75.16, 97.29 77.04, 19.5 78 M280.5 78 C193.92 75.6, 108.61 76.38, 19.5 78 M19.5 78 C5.56 78.29, -1.21 69.65, 0 58.5 M19.5 78 C4.41 77.77, -2.1 69.49, 0 58.5 M0 58.5 C0.66 46.86, -1.17 37.72, 0 19.5 M0 58.5 C0.17 43.03, 0.22 29.63, 0 19.5 M0 19.5 C0.44 5.05, 8.12 -1.31, 19.5 0 M0 19.5 C0.11 5.37, 5.02 -0.03, 19.5 0" stroke="#1e1e1e" stroke-width="2" fill="none"></path></g><g transform="translate(132.48000000000002 52.5) rotate(0 83.51999999999998 22.5)"><text x="83.52" y="16.1103515625" font-family="Helvetica, Segoe UI Emoji" font-size="18px" fill="#1e1e1e" text-anchor="middle" style="white-space: pre;" direction="ltr" dominant-baseline="alphabetic">Source Documents</text><text x="83.52" y="38.6103515625" font-family="Helvetica, Segoe UI Emoji" font-size="18px" fill="#1e1e1e" text-anchor="middle" style="white-space: pre;" direction="ltr" dominant-baseline="alphabetic">源文档</text></g><g stroke-linecap="round" transform="translate(86 156) rotate(0 130 39)"><path d="M19.5 0 C78.36 -0.78, 143.4 1.18, 240.5 0 C252.34 -0.45, 258.73 5.78, 260 19.5 C262.85 32.58, 260.55 36.7, 260 58.5 C257.41 69.27, 250.3 80.59, 240.5 78 C185.04 80.46, 128.58 80.2, 19.5 78 C9.02 81.58, 1.12 74.02, 0 58.5 C-0.82 50.73, -0.45 41.74, 0 19.5 C-1.06 4.63, 8.13 1.16, 19.5 0" stroke="none" stroke-width="0" fill="#e9ecef"></path><path d="M19.5 0 C81.93 0.42, 142.81 -0.46, 240.5 0 M19.5 0 C97.02 0.47, 173.72 0.57, 240.5 0 M240.5 0 C252.47 0.69, 260.84 5.9, 260 19.5 M240.5 0 C253.54 -1.09, 259.93 7.01, 260 19.5 M260 19.5 C260.74 27.39, 261.61 37.89, 260 58.5 M260 19.5 C259.32 30.46, 260.22 42.68, 260 58.5 M260 58.5 C260.26 72.3, 252.23 79.22, 240.5 78 M260 58.5 C259.59 72.63, 251.72 76.1, 240.5 78 M240.5 78 C185.99 77.21, 129.2 77.35, 19.5 78 M240.5 78 C152.83 77.76, 64.44 77.79, 19.5 78 M19.5 78 C7.39 77.02, 1.78 72.72, 0 58.5 M19.5 78 C6.69 79.23, 1.6 73.18, 0 58.5 M0 58.5 C1.75 50.81, 1.81 41.73, 0 19.5 M0 58.5 C-1.19 50.11, 0.22 42.5, 0 19.5 M0 19.5 C-1.26 7.07, 5.42 0.84, 19.5 0 M0 19.5 C-0.54 4.23, 6.07 0.97, 19.5 0" stroke="#1e1e1e" stroke-width="2" fill="none"></path></g><g transform="translate(163.8 172.5) rotate(0 52.19999999999999 22.5)"><text x="52.199999999999996" y="16.1103515625" font-family="Helvetica, Segoe UI Emoji" font-size="18px" fill="#1e1e1e" text-anchor="middle" style="white-space: pre;" direction="ltr" dominant-baseline="alphabetic">Text Units</text><text x="52.199999999999996" y="38.6103515625" font-family="Helvetica, Segoe UI Emoji" font-size="18px" fill="#1e1e1e" text-anchor="middle" style="white-space: pre;" direction="ltr" dominant-baseline="alphabetic">文本单元</text></g><g stroke-linecap="round" transform="translate(86 276) rotate(0 130 39)"><path d="M19.5 0 C92.65 -0.25, 165.4 1.71, 240.5 0 C254.03 -0.55, 257.58 4.35, 260 19.5 C261.94 33.39, 258.61 40.85, 260 58.5 C263.11 68.13, 250.07 75.55, 240.5 78 C172.09 78.7, 104.63 76.96, 19.5 78 C9.09 74.52, -3.4 72.79, 0 58.5 C0.53 48.39, -0.95 39.02, 0 19.5 C-2.56 5.23, 7.82 2.02, 19.5 0" stroke="none" stroke-width="0" fill="#b2f2bb"></path><path d="M19.5 0 C87.55 -1.3, 156.28 -0.02, 240.5 0 M19.5 0 C95 -1.3, 170.46 -0.95, 240.5 0 M240.5 0 C255.2 0.24, 261.89 8.14, 260 19.5 M240.5 0 C254.23 -0.27, 261.31 8.68, 260 19.5 M260 19.5 C261.6 35.83, 259.15 49.08, 260 58.5 M260 19.5 C259.08 32.3, 260.36 44.9, 260 58.5 M260 58.5 C261.68 70.18, 252.16 76.34, 240.5 78 M260 58.5 C260.4 69.64, 253.85 78.7, 240.5 78 M240.5 78 C177.94 77.03, 116.81 76.6, 19.5 78 M240.5 78 C180.88 78.55, 121.97 79.13, 19.5 78 M19.5 78 C6.3 76.38, 0.09 69.77, 0 58.5 M19.5 78 C7.59 77.35, -0.2 73.43, 0 58.5 M0 58.5 C0.42 44.59, -1.16 32.51, 0 19.5 M0 58.5 C0.67 50.8, -0.4 42.42, 0 19.5 M0 19.5 C-0.85 8.19, 6.43 0.76, 19.5 0 M0 19.5 C-2.29 5.45, 4.58 -0.11, 19.5 0" stroke="#1e1e1e" stroke-width="2" fill="none"></path></g><g transform="translate(148.14 292.5) rotate(0 67.86000000000001 22.5)"><text x="67.86" y="16.1103515625" font-family="Helvetica, Segoe UI Emoji" font-size="18px" fill="#1e1e1e" text-anchor="middle" style="white-space: pre;" direction="ltr" dominant-baseline="alphabetic">Extract Graph</text><text x="67.86" y="38.6103515625" font-family="Helvetica, Segoe UI Emoji" font-size="18px" fill="#1e1e1e" text-anchor="middle" style="white-space: pre;" direction="ltr" dominant-baseline="alphabetic">图抽取</text></g><g stroke-linecap="round" transform="translate(36 396) rotate(0 180 39)"><path d="M19.5 0 C144.07 -1.42, 267.31 -2.79, 340.5 0 C349.92 2.64, 356.94 4.73, 360 19.5 C360.11 32.78, 356.64 52.17, 360 58.5 C362.84 74.43, 355.05 76.38, 340.5 78 C264.73 80.54, 185.84 78.44, 19.5 78 C9.94 80.97, 2.49 69.08, 0 58.5 C1.75 47.46, 0.83 30.91, 0 19.5 C-1.84 8.8, 2.94 0.48, 19.5 0" stroke="none" stroke-width="0" fill="#e9ecef"></path><path d="M19.5 0 C116.6 1.42, 211.03 1.02, 340.5 0 M19.5 0 C114.21 2.49, 209.66 2.43, 340.5 0 M340.5 0 C352.04 1.98, 358.74 4.89, 360 19.5 M340.5 0 C351.97 -1.21, 362.09 6.31, 360 19.5 M360 19.5 C361.72 35.69, 360.34 50, 360 58.5 M360 19.5 C359.76 31.89, 360.28 43.55, 360 58.5 M360 58.5 C358.32 71.93, 353.55 79.46, 340.5 78 M360 58.5 C359.67 73.57, 354.02 79.13, 340.5 78 M340.5 78 C219.04 79.2, 96.93 79.45, 19.5 78 M340.5 78 C239.22 80.01, 137.93 80.39, 19.5 78 M19.5 78 C8.35 76.96, 1.42 72.31, 0 58.5 M19.5 78 C8.32 76.85, 2.26 72.18, 0 58.5 M0 58.5 C0.45 49.38, 1.69 40.13, 0 19.5 M0 58.5 C-0.64 42.91, -0.99 28.59, 0 19.5 M0 19.5 C0.54 7.96, 4.66 1.2, 19.5 0 M0 19.5 C-1.81 6.77, 6.84 -0.73, 19.5 0" stroke="#1e1e1e" stroke-width="2" fill="none"></path></g><g transform="translate(90.72000000000003 412.5) rotate(0 125.27999999999997 22.5)"><text x="125.27999999999999" y="16.1103515625" font-family="Helvetica, Segoe UI Emoji" font-size="18px" fill="#1e1e1e" text-anchor="middle" style="white-space: pre;" direction="ltr" dominant-baseline="alphabetic">Entities / Relationships</text><text x="125.27999999999999" y="38.6103515625" font-family="Helvetica, Segoe UI Emoji" font-size="18px" fill="#1e1e1e" text-anchor="middle" style="white-space: pre;" direction="ltr" dominant-baseline="alphabetic">实体与关系</text></g><g stroke-linecap="round" transform="translate(56 516) rotate(0 160 39)"><path d="M19.5 0 C116.98 -0.85, 211.24 -1.21, 300.5 0 C312.88 -1.06, 319.65 3.74, 320 19.5 C319.11 31.24, 317.9 51.76, 320 58.5 C320.65 70.44, 316.48 78.17, 300.5 78 C229.31 78.11, 161.4 79.76, 19.5 78 C7.13 77.31, -0.19 69.7, 0 58.5 C0.99 43.48, 1.64 31.59, 0 19.5 C-3.48 6.76, 8.27 2.51, 19.5 0" stroke="none" stroke-width="0" fill="#b2f2bb"></path><path d="M19.5 0 C107.57 0.44, 196.94 1.44, 300.5 0 M19.5 0 C103.55 0.84, 187.3 1.09, 300.5 0 M300.5 0 C315.34 -1.74, 320.47 6.61, 320 19.5 M300.5 0 C314.17 -1.11, 320.76 6.35, 320 19.5 M320 19.5 C320 33.76, 319.76 45.07, 320 58.5 M320 19.5 C320.36 30.79, 320.84 40.7, 320 58.5 M320 58.5 C321.94 71.91, 315.22 76.37, 300.5 78 M320 58.5 C321.72 70.35, 311.41 79.66, 300.5 78 M300.5 78 C210.65 78.55, 118.37 79.54, 19.5 78 M300.5 78 C193.44 78.03, 85.57 79.09, 19.5 78 M19.5 78 C8.28 76.04, 0.11 72.58, 0 58.5 M19.5 78 C7.76 78.55, -0.49 69.45, 0 58.5 M0 58.5 C0.94 44.84, -0.16 34.49, 0 19.5 M0 58.5 C-0.52 43.69, -0.71 27.85, 0 19.5 M0 19.5 C-1.98 4.79, 4.85 0.08, 19.5 0 M0 19.5 C-1.58 8.26, 5.5 -0.07, 19.5 0" stroke="#1e1e1e" stroke-width="2" fill="none"></path></g><g transform="translate(116.82 532.5) rotate(0 99.17999999999998 22.5)"><text x="99.17999999999999" y="16.1103515625" font-family="Helvetica, Segoe UI Emoji" font-size="18px" fill="#1e1e1e" text-anchor="middle" style="white-space: pre;" direction="ltr" dominant-baseline="alphabetic">Cluster Communities</text><text x="99.17999999999999" y="38.6103515625" font-family="Helvetica, Segoe UI Emoji" font-size="18px" fill="#1e1e1e" text-anchor="middle" style="white-space: pre;" direction="ltr" dominant-baseline="alphabetic">社区聚类</text></g><g stroke-linecap="round" transform="translate(56 636) rotate(0 160 39)"><path d="M19.5 0 C76.8 -2.44, 134.46 2.61, 300.5 0 C315.48 -2.91, 321.03 7.61, 320 19.5 C316.55 29.13, 318.26 42.41, 320 58.5 C322.69 70.34, 312.55 78.12, 300.5 78 C195.19 75.62, 90.3 77.59, 19.5 78 C7.71 76.41, 2.86 71.28, 0 58.5 C-3.15 48.08, 0.04 37.78, 0 19.5 C-0.68 4.35, 3.67 -0.38, 19.5 0" stroke="none" stroke-width="0" fill="#e9ecef"></path><path d="M19.5 0 C115.91 1.6, 210.68 -0.1, 300.5 0 M19.5 0 C110.73 -0.92, 202.63 -1.28, 300.5 0 M300.5 0 C312.13 -0.46, 318.55 5.37, 320 19.5 M300.5 0 C311.66 1.03, 322.19 7.34, 320 19.5 M320 19.5 C321.99 29.61, 320.14 39.84, 320 58.5 M320 19.5 C320.78 30.37, 320.76 40.44, 320 58.5 M320 58.5 C319.19 71.54, 315.25 76.76, 300.5 78 M320 58.5 C322.21 70.3, 314.07 79.08, 300.5 78 M300.5 78 C220.42 76.23, 142.03 75.99, 19.5 78 M300.5 78 C190.79 77.53, 81.37 77.83, 19.5 78 M19.5 78 C5.07 77.06, 0.36 72.51, 0 58.5 M19.5 78 C5.62 79.01, 0.77 70.9, 0 58.5 M0 58.5 C0.9 46.92, 1.51 31.68, 0 19.5 M0 58.5 C-1.01 49.61, -0.2 42.08, 0 19.5 M0 19.5 C0.63 6.59, 4.94 -0.59, 19.5 0 M0 19.5 C1.26 7.86, 7.09 0.03, 19.5 0" stroke="#1e1e1e" stroke-width="2" fill="none"></path></g><g transform="translate(127.25999999999999 652.5) rotate(0 88.74000000000001 22.5)"><text x="88.74" y="16.1103515625" font-family="Helvetica, Segoe UI Emoji" font-size="18px" fill="#1e1e1e" text-anchor="middle" style="white-space: pre;" direction="ltr" dominant-baseline="alphabetic">Community Reports</text><text x="88.74" y="38.6103515625" font-family="Helvetica, Segoe UI Emoji" font-size="18px" fill="#1e1e1e" text-anchor="middle" style="white-space: pre;" direction="ltr" dominant-baseline="alphabetic">社区报告</text></g><g stroke-linecap="round" transform="translate(76 756) rotate(0 140 39)"><path d="M19.5 0 C87.76 3.3, 159.74 -0.68, 260.5 0 C270.85 -2.96, 278.76 4.36, 280 19.5 C279.45 31.13, 277.25 35.79, 280 58.5 C279.27 68.99, 270.52 76.08, 260.5 78 C205.07 78.38, 151.93 80.93, 19.5 78 C5.61 76.38, -2.94 69, 0 58.5 C2.28 48.04, -2.63 32.98, 0 19.5 C3.56 9.28, 8.76 0.43, 19.5 0" stroke="none" stroke-width="0" fill="#ffc9c9"></path><path d="M19.5 0 C115.21 1.71, 209.45 1.46, 260.5 0 M19.5 0 C109.46 1.88, 200.32 1.02, 260.5 0 M260.5 0 C274.09 1.42, 281.52 8.16, 280 19.5 M260.5 0 C272.16 -0.16, 280.03 6.48, 280 19.5 M280 19.5 C279.16 32.7, 280.56 46.83, 280 58.5 M280 19.5 C279.62 31.13, 279.17 42.79, 280 58.5 M280 58.5 C279.8 72.91, 271.68 78.22, 260.5 78 M280 58.5 C282.01 70.45, 272.06 78.74, 260.5 78 M260.5 78 C210.11 76.48, 158.73 76.4, 19.5 78 M260.5 78 C172.45 79.97, 85.05 80.23, 19.5 78 M19.5 78 C6.42 77.02, -1.67 72.2, 0 58.5 M19.5 78 C8.62 79.43, 0.91 69.89, 0 58.5 M0 58.5 C-0.2 48.57, 0.68 41.38, 0 19.5 M0 58.5 C-0.81 47.79, 0.77 35.56, 0 19.5 M0 19.5 C1.91 7.17, 6.99 -0.1, 19.5 0 M0 19.5 C-2 6.98, 7.74 0.12, 19.5 0" stroke="#1e1e1e" stroke-width="2" fill="none"></path></g><g transform="translate(148.14 772.5) rotate(0 67.86000000000001 22.5)"><text x="67.86" y="16.1103515625" font-family="Helvetica, Segoe UI Emoji" font-size="18px" fill="#1e1e1e" text-anchor="middle" style="white-space: pre;" direction="ltr" dominant-baseline="alphabetic">Global Search</text><text x="67.86" y="38.6103515625" font-family="Helvetica, Segoe UI Emoji" font-size="18px" fill="#1e1e1e" text-anchor="middle" style="white-space: pre;" direction="ltr" dominant-baseline="alphabetic">全局检索</text></g><g stroke-linecap="round" transform="translate(646 276) rotate(0 160 39)"><path d="M19.5 0 C121.94 1.18, 220.55 2.94, 300.5 0 C312.71 -1.91, 317.09 4.18, 320 19.5 C322.64 32.97, 317.51 47.45, 320 58.5 C318.81 73.62, 311.45 74.69, 300.5 78 C231.77 77.33, 157.74 74.95, 19.5 78 C5.67 75.9, 0.44 72.92, 0 58.5 C1.88 45, 1.21 38.2, 0 19.5 C-0.57 4.69, 7.68 1.17, 19.5 0" stroke="none" stroke-width="0" fill="#d0bfff"></path><path d="M19.5 0 C113.91 -0.84, 206.29 0.28, 300.5 0 M19.5 0 C86.86 -1.07, 152.94 -2.24, 300.5 0 M300.5 0 C311.66 -1.29, 318.94 5.08, 320 19.5 M300.5 0 C312.95 1.44, 320.91 7.21, 320 19.5 M320 19.5 C320.8 34.36, 321.19 47.74, 320 58.5 M320 19.5 C320.74 28.41, 321.19 37.26, 320 58.5 M320 58.5 C321.71 72.67, 312.45 76.51, 300.5 78 M320 58.5 C319.96 73.79, 312.07 79.59, 300.5 78 M300.5 78 C212.78 78.28, 127.21 76.89, 19.5 78 M300.5 78 C229.63 77.74, 157.83 77.51, 19.5 78 M19.5 78 C7.24 77.93, -0.13 71.14, 0 58.5 M19.5 78 C7.25 77.21, -1.71 69.39, 0 58.5 M0 58.5 C-0.79 46.6, -0.05 32.76, 0 19.5 M0 58.5 C0.73 50.01, 1.13 41.37, 0 19.5 M0 19.5 C-0.47 6.38, 5.64 -0.8, 19.5 0 M0 19.5 C0.27 7.21, 6.6 -1.8, 19.5 0" stroke="#1e1e1e" stroke-width="2" fill="none"></path></g><g transform="translate(717.26 292.5) rotate(0 88.74000000000001 22.5)"><text x="88.74" y="16.1103515625" font-family="Helvetica, Segoe UI Emoji" font-size="18px" fill="#1e1e1e" text-anchor="middle" style="white-space: pre;" direction="ltr" dominant-baseline="alphabetic">Entity Embeddings</text><text x="88.74" y="38.6103515625" font-family="Helvetica, Segoe UI Emoji" font-size="18px" fill="#1e1e1e" text-anchor="middle" style="white-space: pre;" direction="ltr" dominant-baseline="alphabetic">实体向量</text></g><g stroke-linecap="round" transform="translate(616 556) rotate(0 190 39)"><path d="M19.5 0 C99.43 -3.67, 181.68 -0.23, 360.5 0 C372.93 1.91, 379.31 8.26, 380 19.5 C382.43 30.94, 381.81 46.08, 380 58.5 C376.58 68.22, 370.29 78.56, 360.5 78 C276.95 74.57, 195.99 75.07, 19.5 78 C4.36 74.44, 1.66 74.22, 0 58.5 C1.6 47.76, -1.95 43.86, 0 19.5 C0.79 9.43, 6.16 0.99, 19.5 0" stroke="none" stroke-width="0" fill="#d0bfff"></path><path d="M19.5 0 C108.79 0.64, 197.96 1.19, 360.5 0 M19.5 0 C141.19 -2.06, 262.75 -1.13, 360.5 0 M360.5 0 C372.07 -0.7, 380.72 7.49, 380 19.5 M360.5 0 C375.68 1.99, 379.5 7.8, 380 19.5 M380 19.5 C380.53 34.14, 380.64 49.4, 380 58.5 M380 19.5 C380.37 32.89, 380.44 47.83, 380 58.5 M380 58.5 C378.24 71.17, 374.18 79.88, 360.5 78 M380 58.5 C378.75 70.42, 374.8 80.15, 360.5 78 M360.5 78 C287.07 78.98, 215.85 79.44, 19.5 78 M360.5 78 C262.72 76.83, 165.25 77.15, 19.5 78 M19.5 78 C5.53 76.8, -1.01 71.68, 0 58.5 M19.5 78 C7.75 75.88, 1.99 72.5, 0 58.5 M0 58.5 C2.18 46.06, 1.03 30.99, 0 19.5 M0 58.5 C0.3 49.07, 0.64 42.04, 0 19.5 M0 19.5 C0.77 4.96, 5.85 1.58, 19.5 0 M0 19.5 C0.54 6.58, 4.55 -2.18, 19.5 0" stroke="#1e1e1e" stroke-width="2" fill="none"></path></g><g transform="translate(696.38 572.5) rotate(0 109.62 22.5)"><text x="109.61999999999999" y="16.1103515625" font-family="Helvetica, Segoe UI Emoji" font-size="18px" fill="#1e1e1e" text-anchor="middle" style="white-space: pre;" direction="ltr" dominant-baseline="alphabetic">Local Context Builder</text><text x="109.61999999999999" y="38.6103515625" font-family="Helvetica, Segoe UI Emoji" font-size="18px" fill="#1e1e1e" text-anchor="middle" style="white-space: pre;" direction="ltr" dominant-baseline="alphabetic">局部上下文构建</text></g><g stroke-linecap="round" transform="translate(666 756) rotate(0 140 39)"><path d="M19.5 0 C78 1.16, 133.47 5.99, 260.5 0 C271.02 0.88, 276.59 10.02, 280 19.5 C277.03 31.88, 279.05 51.87, 280 58.5 C283.16 72.61, 271.68 79.53, 260.5 78 C190.98 77.19, 124.22 77.73, 19.5 78 C5.27 79.37, -1.54 72.44, 0 58.5 C-0.19 42.71, 0.97 32.27, 0 19.5 C-0.28 7.76, 8 2.18, 19.5 0" stroke="none" stroke-width="0" fill="#ffc9c9"></path><path d="M19.5 0 C89.3 -0.05, 160.98 -0.19, 260.5 0 M19.5 0 C102.9 -0.68, 185.05 -1, 260.5 0 M260.5 0 C273.66 -1.86, 279.89 5.71, 280 19.5 M260.5 0 C271.62 0.45, 278.84 7.51, 280 19.5 M280 19.5 C278.57 29.8, 279.05 42.07, 280 58.5 M280 19.5 C280.9 29.07, 280.33 38.12, 280 58.5 M280 58.5 C280.94 70.95, 272.96 76.13, 260.5 78 M280 58.5 C280.05 73.36, 275.8 78.4, 260.5 78 M260.5 78 C201.02 76.65, 141.25 77.45, 19.5 78 M260.5 78 C188.64 80.52, 115.31 79.59, 19.5 78 M19.5 78 C8.26 76.22, 0.01 73.23, 0 58.5 M19.5 78 C7.23 78.2, 0.05 73.74, 0 58.5 M0 58.5 C-1.68 44.13, 0.61 33.31, 0 19.5 M0 58.5 C-1.07 47.43, -0.78 38, 0 19.5 M0 19.5 C0.21 7.91, 4.98 -0.21, 19.5 0 M0 19.5 C-2.17 5.19, 8.71 -0.24, 19.5 0" stroke="#1e1e1e" stroke-width="2" fill="none"></path></g><g transform="translate(743.36 772.5) rotate(0 62.639999999999986 22.5)"><text x="62.63999999999999" y="16.1103515625" font-family="Helvetica, Segoe UI Emoji" font-size="18px" fill="#1e1e1e" text-anchor="middle" style="white-space: pre;" direction="ltr" dominant-baseline="alphabetic">Local Search</text><text x="62.63999999999999" y="38.6103515625" font-family="Helvetica, Segoe UI Emoji" font-size="18px" fill="#1e1e1e" text-anchor="middle" style="white-space: pre;" direction="ltr" dominant-baseline="alphabetic">局部检索</text></g><g stroke-linecap="round"><g transform="translate(216 114) rotate(0 0 21)"><path d="M-0.42 -0.39 C-0.42 6.71, -0.01 35.55, 0.12 42.53 M0.37 0.6 C0.3 7.57, -0.22 34.96, -0.25 41.84" stroke="#1e1e1e" stroke-width="2" fill="none"></path></g><g transform="translate(216 114) rotate(0 0 21)"><path d="M-7.19 22.02 C-5.68 28.6, -1.79 35.37, -0.25 41.84 M-7.19 22.02 C-5.89 26.39, -4.33 30.62, -0.25 41.84" stroke="#1e1e1e" stroke-width="2" fill="none"></path></g><g transform="translate(216 114) rotate(0 0 21)"><path d="M7.18 22.2 C4.09 28.66, 3.4 35.38, -0.25 41.84 M7.18 22.2 C5.36 26.49, 3.83 30.68, -0.25 41.84" stroke="#1e1e1e" stroke-width="2" fill="none"></path></g></g><mask></mask><g stroke-linecap="round"><g transform="translate(216 234) rotate(0 0 21)"><path d="M0.39 -0.03 C0.52 7, 0.4 35.3, 0.41 42.37 M-0.08 -0.52 C0.05 6.34, 0.12 34.59, 0.19 41.6" stroke="#1e1e1e" stroke-width="2" fill="none"></path></g><g transform="translate(216 234) rotate(0 0 21)"><path d="M-7.11 21.91 C-5.44 27.2, -3.01 31.9, 0.19 41.6 M-7.11 21.91 C-4.82 29.53, -1.23 36.4, 0.19 41.6" stroke="#1e1e1e" stroke-width="2" fill="none"></path></g><g transform="translate(216 234) rotate(0 0 21)"><path d="M7.25 21.82 C5.6 27.18, 4.7 31.9, 0.19 41.6 M7.25 21.82 C4.17 29.54, 2.4 36.44, 0.19 41.6" stroke="#1e1e1e" stroke-width="2" fill="none"></path></g></g><mask></mask><g stroke-linecap="round"><g transform="translate(216 354) rotate(0 0 21)"><path d="M0.54 -0.19 C0.46 6.9, -0.04 35.39, -0.08 42.35 M0.16 -0.77 C-0.03 6.2, -0.55 34.45, -0.55 41.57" stroke="#1e1e1e" stroke-width="2" fill="none"></path></g><g transform="translate(216 354) rotate(0 0 21)"><path d="M-7.52 21.76 C-5.32 28.95, -1.74 37.05, -0.55 41.57 M-7.52 21.76 C-5.81 25.59, -4.14 30.73, -0.55 41.57" stroke="#1e1e1e" stroke-width="2" fill="none"></path></g><g transform="translate(216 354) rotate(0 0 21)"><path d="M6.84 21.91 C3.71 29.12, 1.95 37.16, -0.55 41.57 M6.84 21.91 C5.42 25.77, 3.97 30.88, -0.55 41.57" stroke="#1e1e1e" stroke-width="2" fill="none"></path></g></g><mask></mask><g stroke-linecap="round"><g transform="translate(216 474) rotate(0 0 21)"><path d="M0.15 -0.23 C0.07 6.65, 0.02 34.67, -0.02 41.65 M-0.43 -0.82 C-0.62 6.09, -0.46 35.02, -0.46 42.17" stroke="#1e1e1e" stroke-width="2" fill="none"></path></g><g transform="translate(216 474) rotate(0 0 21)"><path d="M-7.7 22.46 C-5.27 29.97, -2.72 37.49, -0.46 42.17 M-7.7 22.46 C-5.86 27.13, -4.43 32.02, -0.46 42.17" stroke="#1e1e1e" stroke-width="2" fill="none"></path></g><g transform="translate(216 474) rotate(0 0 21)"><path d="M6.67 22.42 C3.59 29.97, 0.63 37.5, -0.46 42.17 M6.67 22.42 C5.06 27.14, 3.03 32.04, -0.46 42.17" stroke="#1e1e1e" stroke-width="2" fill="none"></path></g></g><mask></mask><g stroke-linecap="round"><g transform="translate(216 594) rotate(0 0 21)"><path d="M-0.55 0.36 C-0.7 7.38, -0.41 35.48, -0.41 42.39 M0.17 0.07 C0.14 6.91, 0.56 34.58, 0.61 41.63" stroke="#1e1e1e" stroke-width="2" fill="none"></path></g><g transform="translate(216 594) rotate(0 0 21)"><path d="M-6.79 21.98 C-3.17 29, -0.2 36.48, 0.61 41.63 M-6.79 21.98 C-5.26 27.01, -2.51 32.6, 0.61 41.63" stroke="#1e1e1e" stroke-width="2" fill="none"></path></g><g transform="translate(216 594) rotate(0 0 21)"><path d="M7.57 21.81 C5.54 28.83, 2.86 36.38, 0.61 41.63 M7.57 21.81 C5.2 26.85, 4.04 32.49, 0.61 41.63" stroke="#1e1e1e" stroke-width="2" fill="none"></path></g></g><mask></mask><g stroke-linecap="round"><g transform="translate(216 714) rotate(0 0 21)"><path d="M0.16 -0.05 C0.17 7.04, 0.48 35.6, 0.42 42.53 M-0.42 -0.55 C-0.48 6.4, 0.25 34.77, 0.2 41.83" stroke="#1e1e1e" stroke-width="2" fill="none"></path></g><g transform="translate(216 714) rotate(0 0 21)"><path d="M-7.21 22.18 C-4.55 30.23, -0.75 36.35, 0.2 41.83 M-7.21 22.18 C-6.07 25.9, -4.05 30.8, 0.2 41.83" stroke="#1e1e1e" stroke-width="2" fill="none"></path></g><g transform="translate(216 714) rotate(0 0 21)"><path d="M7.15 22.02 C4.48 30.14, 2.95 36.33, 0.2 41.83 M7.15 22.02 C5.27 25.71, 4.25 30.65, 0.2 41.83" stroke="#1e1e1e" stroke-width="2" fill="none"></path></g></g><mask></mask><g stroke-linecap="round"><g transform="translate(346 195) rotate(0 150 60)"><path d="M0.11 -0.5 C49.91 19.72, 249.41 101.18, 299.46 121.15 M-1.3 -1.81 C48.24 18.13, 248.03 99.28, 298.22 119.63" stroke="#1e1e1e" stroke-width="2" fill="none"></path></g><g transform="translate(346 195) rotate(0 150 60)"><path d="M273.24 118.72 C281.27 118.12, 292.89 120.04, 298.22 119.63 M273.24 118.72 C278.58 119.21, 284.89 119.05, 298.22 119.63" stroke="#1e1e1e" stroke-width="2" fill="none"></path></g><g transform="translate(346 195) rotate(0 150 60)"><path d="M279.67 102.87 C285.39 107.9, 294.73 115.44, 298.22 119.63 M279.67 102.87 C283.5 107.24, 288.25 110.95, 298.22 119.63" stroke="#1e1e1e" stroke-width="2" fill="none"></path></g></g><mask></mask><g stroke-linecap="round"><g transform="translate(396 435) rotate(0 110 80)"><path d="M0.57 -0.6 C37.21 25.9, 183.55 132, 219.97 158.84 M-0.59 1.7 C35.88 28.31, 181.98 133.66, 219.01 159.76" stroke="#1e1e1e" stroke-width="2" fill="none"></path></g><g transform="translate(396 435) rotate(0 110 80)"><path d="M194.92 153.07 C201.32 154.96, 207.78 155.6, 219.01 159.76 M194.92 153.07 C203.82 154.8, 211.38 157.04, 219.01 159.76" stroke="#1e1e1e" stroke-width="2" fill="none"></path></g><g transform="translate(396 435) rotate(0 110 80)"><path d="M204.86 139.15 C208.19 145.37, 211.59 150.28, 219.01 159.76 M204.86 139.15 C210.35 145.56, 214.58 152.46, 219.01 159.76" stroke="#1e1e1e" stroke-width="2" fill="none"></path></g></g><mask></mask><g stroke-linecap="round"><g transform="translate(806 354) rotate(0 0 101)"><path d="M1.09 -0.81 C0.96 32.88, -0.12 169.19, -0.49 202.79 M0.2 1.38 C-0.16 34.67, -1.86 167.73, -1.69 201.09" stroke="#1e1e1e" stroke-width="2" fill="none"></path></g><g transform="translate(806 354) rotate(0 0 101)"><path d="M-10.12 177.55 C-8.59 184.31, -3.18 190.95, -1.69 201.09 M-10.12 177.55 C-7.38 183.33, -6.89 187.48, -1.69 201.09" stroke="#1e1e1e" stroke-width="2" fill="none"></path></g><g transform="translate(806 354) rotate(0 0 101)"><path d="M6.98 177.64 C2.95 184.53, 2.8 191.14, -1.69 201.09 M6.98 177.64 C6.27 183.3, 3.31 187.43, -1.69 201.09" stroke="#1e1e1e" stroke-width="2" fill="none"></path></g></g><mask></mask><g stroke-linecap="round"><g transform="translate(376 675) rotate(0 120 -40)"><path d="M0.97 0.56 C40.98 -13.06, 200.61 -67.78, 240.36 -81.18 M0.01 -0.19 C39.88 -13.75, 199.87 -67.22, 239.6 -80.27" stroke="#1e1e1e" stroke-width="2" fill="none"></path></g><g transform="translate(376 675) rotate(0 120 -40)"><path d="M219.99 -64.75 C227.13 -69.28, 230.5 -75.79, 239.6 -80.27 M219.99 -64.75 C225.4 -69.33, 232.73 -74.79, 239.6 -80.27" stroke="#1e1e1e" stroke-width="2" fill="none"></path></g><g transform="translate(376 675) rotate(0 120 -40)"><path d="M214.61 -80.98 C223.54 -80.36, 228.64 -81.67, 239.6 -80.27 M214.61 -80.98 C221.76 -80.54, 230.76 -80.96, 239.6 -80.27" stroke="#1e1e1e" stroke-width="2" fill="none"></path></g></g><mask></mask><g stroke-linecap="round"><g transform="translate(806 634) rotate(0 0 61)"><path d="M-0.83 -0.41 C-1.17 19.98, -1.35 101.41, -1.03 121.69 M0.94 -1.67 C0.88 18.95, 1.15 102.42, 1.14 123.06" stroke="#1e1e1e" stroke-width="2" fill="none"></path></g><g transform="translate(806 634) rotate(0 0 61)"><path d="M-7.45 99.58 C-4.96 106.9, -1.52 119.36, 1.14 123.06 M-7.45 99.58 C-6.06 105.2, -3.67 111.38, 1.14 123.06" stroke="#1e1e1e" stroke-width="2" fill="none"></path></g><g transform="translate(806 634) rotate(0 0 61)"><path d="M9.66 99.56 C5.6 106.76, 2.51 119.24, 1.14 123.06 M9.66 99.56 C6.95 105.16, 5.24 111.34, 1.14 123.06" stroke="#1e1e1e" stroke-width="2" fill="none"></path></g></g><mask></mask></svg>