<svg version="1.1" xmlns="http://www.w3.org/2000/svg" viewBox="0 0 1522 1770" width="1522" height="1770"><!-- svg-source:excalidraw --><metadata></metadata><defs><style class="style-fonts">
      </style></defs><rect x="0" y="0" width="1522" height="1770" fill="#ffffff"></rect><g stroke-linecap="round" transform="translate(626 36) rotate(0 130 39)"><path d="M19.5 0 C92.57 -0.18, 168.78 -1.13, 240.5 0 C251.41 -1.96, 257.2 6.3, 260 19.5 C257.99 35.09, 261.89 46.12, 260 58.5 C261.46 69.14, 256.48 79.73, 240.5 78 C189.04 79.77, 140.47 78.91, 19.5 78 C6.13 74.89, -1.56 70.55, 0 58.5 C-1.29 48.69, -1.74 34.92, 0 19.5 C0.04 4.96, 5.72 3.13, 19.5 0" stroke="none" stroke-width="0" fill="#a5d8ff"></path><path d="M19.5 0 C107.75 1.08, 195.69 2.55, 240.5 0 M19.5 0 C63.84 0.18, 108.53 0.21, 240.5 0 M240.5 0 C253.41 1.12, 258.04 4.71, 260 19.5 M240.5 0 C254.02 1.66, 261.07 6.93, 260 19.5 M260 19.5 C260.31 30.6, 260.68 46.21, 260 58.5 M260 19.5 C260.91 28.73, 260.73 37.13, 260 58.5 M260 58.5 C259.73 72.77, 253.15 77.15, 240.5 78 M260 58.5 C259.64 69.45, 255.71 78.15, 240.5 78 M240.5 78 C152.06 77.58, 64.17 76.28, 19.5 78 M240.5 78 C175.06 76.52, 108.2 75.62, 19.5 78 M19.5 78 C8.41 79.07, 1.32 71.09, 0 58.5 M19.5 78 C7.58 79, -1.7 73.04, 0 58.5 M0 58.5 C1.61 45.92, 0.8 35.43, 0 19.5 M0 58.5 C-0.59 43.55, -0.13 29.85, 0 19.5 M0 19.5 C0.72 6.35, 8.39 -0.79, 19.5 0 M0 19.5 C0.87 4.58, 4.36 -1.14, 19.5 0" stroke="#1e1e1e" stroke-width="2" fill="none"></path></g><g transform="translate(709.02 52.5) rotate(0 46.98000000000002 22.5)"><text x="46.98" y="16.1103515625" font-family="Helvetica, Segoe UI Emoji" font-size="18px" fill="#1e1e1e" text-anchor="middle" style="white-space: pre;" direction="ltr" dominant-baseline="alphabetic">Documents</text><text x="46.98" y="38.6103515625" font-family="Helvetica, Segoe UI Emoji" font-size="18px" fill="#1e1e1e" text-anchor="middle" style="white-space: pre;" direction="ltr" dominant-baseline="alphabetic">文档输入</text></g><g stroke-linecap="round" transform="translate(566 156) rotate(0 190 39)"><path d="M19.5 0 C92.46 -3.74, 163.93 -2.41, 360.5 0 C370.54 1.36, 379.48 6.57, 380 19.5 C377.2 29.99, 382.93 37.21, 380 58.5 C381.12 68.77, 376.07 80.76, 360.5 78 C261.47 76.55, 157.72 73.7, 19.5 78 C4.95 76.98, -2.37 73.78, 0 58.5 C-2.68 50.09, -1.08 38.97, 0 19.5 C0.79 4.88, 6.66 3.1, 19.5 0" stroke="none" stroke-width="0" fill="#b2f2bb"></path><path d="M19.5 0 C114.36 -0.2, 208.78 -2.28, 360.5 0 M19.5 0 C101.1 -1.32, 182.31 -1.94, 360.5 0 M360.5 0 C374.88 -1.42, 381.62 7.5, 380 19.5 M360.5 0 C373.36 -0.6, 378.46 6.81, 380 19.5 M380 19.5 C378.19 34.93, 380.84 45.88, 380 58.5 M380 19.5 C380.33 29.05, 379.46 37.27, 380 58.5 M380 58.5 C380.81 72.81, 373.56 79.08, 360.5 78 M380 58.5 C381.68 69.3, 371.5 78.47, 360.5 78 M360.5 78 C249.81 80.65, 140.26 79.69, 19.5 78 M360.5 78 C286.66 76.81, 212.32 76.24, 19.5 78 M19.5 78 C6.25 77.71, 1.71 72.53, 0 58.5 M19.5 78 C5.67 79.09, 2.16 70.31, 0 58.5 M0 58.5 C1.05 50.79, 1.7 43.86, 0 19.5 M0 58.5 C-0.77 46.45, -0.87 35.39, 0 19.5 M0 19.5 C1.2 7.28, 7.76 1.99, 19.5 0 M0 19.5 C1.76 4.83, 5.41 1.1, 19.5 0" stroke="#1e1e1e" stroke-width="2" fill="none"></path></g><g transform="translate(641.16 172.5) rotate(0 114.83999999999997 22.5)"><text x="114.83999999999999" y="16.1103515625" font-family="Helvetica, Segoe UI Emoji" font-size="18px" fill="#1e1e1e" text-anchor="middle" style="white-space: pre;" direction="ltr" dominant-baseline="alphabetic">create_base_text_units</text><text x="114.83999999999999" y="38.6103515625" font-family="Helvetica, Segoe UI Emoji" font-size="18px" fill="#1e1e1e" text-anchor="middle" style="white-space: pre;" direction="ltr" dominant-baseline="alphabetic">文本切分</text></g><g stroke-linecap="round" transform="translate(626 276) rotate(0 130 39)"><path d="M19.5 0 C84.45 0.61, 143.24 -3.43, 240.5 0 C255.71 -2.43, 262.83 5.92, 260 19.5 C262.68 35.4, 259.74 47.08, 260 58.5 C256.68 69.75, 254.52 79.46, 240.5 78 C178.74 79.38, 122.83 77.82, 19.5 78 C4.83 78.96, 1.85 71.59, 0 58.5 C2.37 47.59, 1.72 36.25, 0 19.5 C-1.36 4.16, 3.09 -0.54, 19.5 0" stroke="none" stroke-width="0" fill="#e9ecef"></path><path d="M19.5 0 C105.24 2.72, 190.51 0.43, 240.5 0 M19.5 0 C75.42 -1.01, 131.34 -0.05, 240.5 0 M240.5 0 C254.73 0.33, 260.32 5.75, 260 19.5 M240.5 0 C255.15 1.3, 260.74 7.66, 260 19.5 M260 19.5 C260.11 29.8, 260.56 39.15, 260 58.5 M260 19.5 C258.99 29.84, 260.08 40.29, 260 58.5 M260 58.5 C258.63 72.59, 252.98 78.02, 240.5 78 M260 58.5 C260.2 71.62, 253.44 77.5, 240.5 78 M240.5 78 C161.44 78.27, 81.63 77.65, 19.5 78 M240.5 78 C195.27 78.64, 148.02 79.36, 19.5 78 M19.5 78 C5.87 78.42, 0.18 71.88, 0 58.5 M19.5 78 C7.21 79.32, -0.34 72.2, 0 58.5 M0 58.5 C-0.28 48.58, 1.23 36.65, 0 19.5 M0 58.5 C-0.1 47.64, 0.03 38.15, 0 19.5 M0 19.5 C1.48 5.81, 5.7 -0.29, 19.5 0 M0 19.5 C-1.73 7.52, 7.34 -1.39, 19.5 0" stroke="#1e1e1e" stroke-width="2" fill="none"></path></g><g transform="translate(703.8 292.5) rotate(0 52.19999999999999 22.5)"><text x="52.199999999999996" y="16.1103515625" font-family="Helvetica, Segoe UI Emoji" font-size="18px" fill="#1e1e1e" text-anchor="middle" style="white-space: pre;" direction="ltr" dominant-baseline="alphabetic">Text Units</text><text x="52.199999999999996" y="38.6103515625" font-family="Helvetica, Segoe UI Emoji" font-size="18px" fill="#1e1e1e" text-anchor="middle" style="white-space: pre;" direction="ltr" dominant-baseline="alphabetic">文本单元</text></g><g stroke-linecap="round" transform="translate(566 396) rotate(0 190 39)"><path d="M19.5 0 C100.96 -0.14, 184.59 -0.14, 360.5 0 C376.6 2.03, 380.55 7.92, 380 19.5 C382.99 32.56, 377.95 52.6, 380 58.5 C377.96 71.23, 376.62 76.21, 360.5 78 C273.49 76.53, 188.87 76.73, 19.5 78 C9.26 77.36, 1.69 68.98, 0 58.5 C-0.89 50.02, 0.31 41.12, 0 19.5 C1.86 9.08, 7.75 2.37, 19.5 0" stroke="none" stroke-width="0" fill="#b2f2bb"></path><path d="M19.5 0 C121.91 2.11, 225.04 0.35, 360.5 0 M19.5 0 C115.14 -0.05, 210.12 0.9, 360.5 0 M360.5 0 C374.93 0.69, 380.68 4.73, 380 19.5 M360.5 0 C374.61 -1.15, 380.51 6.85, 380 19.5 M380 19.5 C380.81 29.23, 378.45 39.24, 380 58.5 M380 19.5 C380.37 32.17, 379.96 43.8, 380 58.5 M380 58.5 C381.17 69.56, 373.48 77.42, 360.5 78 M380 58.5 C382.13 70.38, 371.8 79.8, 360.5 78 M360.5 78 C237.01 78.79, 112.45 76.37, 19.5 78 M360.5 78 C248.75 75.57, 137.54 75.86, 19.5 78 M19.5 78 C5.64 79.05, 0.28 72.6, 0 58.5 M19.5 78 C6.26 76.58, -2.12 73.77, 0 58.5 M0 58.5 C-0.14 48.88, -1.29 38.36, 0 19.5 M0 58.5 C-0.57 42.39, 1.29 27.97, 0 19.5 M0 19.5 C1.95 5.62, 6.05 0.58, 19.5 0 M0 19.5 C1.32 5.79, 7.87 0.5, 19.5 0" stroke="#1e1e1e" stroke-width="2" fill="none"></path></g><g transform="translate(641.16 412.5) rotate(0 114.83999999999997 22.5)"><text x="114.83999999999999" y="16.1103515625" font-family="Helvetica, Segoe UI Emoji" font-size="18px" fill="#1e1e1e" text-anchor="middle" style="white-space: pre;" direction="ltr" dominant-baseline="alphabetic">extract_graph workflow</text><text x="114.83999999999999" y="38.6103515625" font-family="Helvetica, Segoe UI Emoji" font-size="18px" fill="#1e1e1e" text-anchor="middle" style="white-space: pre;" direction="ltr" dominant-baseline="alphabetic">图抽取流程</text></g><g stroke-linecap="round" transform="translate(546 516) rotate(0 210 46)"><path d="M23 0 C154.77 -0.07, 286.01 -2.12, 397 0 C413.96 -1.21, 417.69 6.9, 420 23 C418.09 39.42, 420.9 51.31, 420 69 C417.64 87.72, 408.99 94.52, 397 92 C253.64 88.31, 109.17 90.64, 23 92 C5.93 94.14, -0.18 85.9, 0 69 C-0.93 52.92, 2.61 37.5, 0 23 C2.37 6.11, 6.76 0.68, 23 0" stroke="none" stroke-width="0" fill="#ffec99"></path><path d="M23 0 C157.1 -0.21, 291.62 0.03, 397 0 M23 0 C159.55 0.38, 295.47 0.56, 397 0 M397 0 C413.01 -0.81, 419.41 7.14, 420 23 M397 0 C410.33 -1.11, 418 9.6, 420 23 M420 23 C418.36 33.29, 421.54 46.23, 420 69 M420 23 C419.55 34.61, 419.77 47.58, 420 69 M420 69 C418.48 85.76, 411.3 91.52, 397 92 M420 69 C419.07 83.88, 412.63 93.42, 397 92 M397 92 C293.74 88.72, 189.17 88.95, 23 92 M397 92 C273.73 91.72, 149.38 91.52, 23 92 M23 92 C7.7 90.87, 0.9 82.38, 0 69 M23 92 C7.17 92.86, -0.99 83.62, 0 69 M0 69 C-1.1 56.16, 0.06 46.57, 0 23 M0 69 C0.13 57.82, 0.56 46.75, 0 23 M0 23 C0.12 6.72, 7.07 -1.72, 23 0 M0 23 C0.34 6.62, 7.48 2.08, 23 0" stroke="#1e1e1e" stroke-width="2" fill="none"></path></g><g transform="translate(646.38 539.5) rotate(0 109.62 22.5)"><text x="109.61999999999999" y="16.1103515625" font-family="Helvetica, Segoe UI Emoji" font-size="18px" fill="#1e1e1e" text-anchor="middle" style="white-space: pre;" direction="ltr" dominant-baseline="alphabetic">GraphExtractor prompt</text><text x="109.61999999999999" y="38.6103515625" font-family="Helvetica, Segoe UI Emoji" font-size="18px" fill="#1e1e1e" text-anchor="middle" style="white-space: pre;" direction="ltr" dominant-baseline="alphabetic">extract_graph 提示词</text></g><g stroke-linecap="round" transform="translate(566 646) rotate(0 190 39)"><path d="M19.5 0 C108.77 -0.04, 200.11 -0.9, 360.5 0 C372.57 1.92, 376.69 4.54, 380 19.5 C381.65 30.96, 379.86 33.64, 380 58.5 C383.3 68.51, 376.99 78.2, 360.5 78 C278.55 77.66, 199.69 77.23, 19.5 78 C6.27 80.21, 1.41 68.6, 0 58.5 C-3.05 51.43, 3.26 44.04, 0 19.5 C-2.21 8.57, 9.41 -0.24, 19.5 0" stroke="none" stroke-width="0" fill="#e9ecef"></path><path d="M19.5 0 C105.26 -0.4, 187.8 0.16, 360.5 0 M19.5 0 C137.41 0.35, 253.97 -0.17, 360.5 0 M360.5 0 C372.01 0.38, 378.86 6.11, 380 19.5 M360.5 0 C372.24 -0.43, 379.85 7.65, 380 19.5 M380 19.5 C378.58 33.63, 381.45 47.49, 380 58.5 M380 19.5 C380.22 33.68, 379.69 47.47, 380 58.5 M380 58.5 C380.18 70.23, 372.58 79.93, 360.5 78 M380 58.5 C379.95 69.23, 372.66 75.83, 360.5 78 M360.5 78 C244.03 79.66, 127.37 77.52, 19.5 78 M360.5 78 C240.51 77.01, 120.72 76.3, 19.5 78 M19.5 78 C7.26 78.85, -0.74 69.65, 0 58.5 M19.5 78 C5.37 78.04, 0.04 72.47, 0 58.5 M0 58.5 C0.11 45.34, -0.71 34.35, 0 19.5 M0 58.5 C-1.05 44.11, -1.09 29.73, 0 19.5 M0 19.5 C1.92 8.09, 5.65 -1.45, 19.5 0 M0 19.5 C-0.73 7.58, 6.94 1.22, 19.5 0" stroke="#1e1e1e" stroke-width="2" fill="none"></path></g><g transform="translate(620.28 662.5) rotate(0 135.72000000000003 22.5)"><text x="135.72" y="16.1103515625" font-family="Helvetica, Segoe UI Emoji" font-size="18px" fill="#1e1e1e" text-anchor="middle" style="white-space: pre;" direction="ltr" dominant-baseline="alphabetic">Raw Entities/Relationships</text><text x="135.72" y="38.6103515625" font-family="Helvetica, Segoe UI Emoji" font-size="18px" fill="#1e1e1e" text-anchor="middle" style="white-space: pre;" direction="ltr" dominant-baseline="alphabetic">原始实体关系</text></g><g stroke-linecap="round" transform="translate(586 766) rotate(0 170 39)"><path d="M19.5 0 C85.27 0.79, 157.8 1.11, 320.5 0 C334.76 -1.72, 343.28 5.92, 340 19.5 C337.42 30.16, 342.31 42.61, 340 58.5 C339.88 71.34, 331.77 81.19, 320.5 78 C252.42 76.02, 189.95 78.08, 19.5 78 C9.54 78.43, 1.17 69.03, 0 58.5 C1.52 44.86, -0.19 35.79, 0 19.5 C0.6 8.04, 5.79 -2.81, 19.5 0" stroke="none" stroke-width="0" fill="#b2f2bb"></path><path d="M19.5 0 C119.74 0.14, 221.16 -2.03, 320.5 0 M19.5 0 C105.9 1.56, 191.85 1.83, 320.5 0 M320.5 0 C333.11 -0.11, 338.97 5.41, 340 19.5 M320.5 0 C335.21 -1.89, 340.95 4.25, 340 19.5 M340 19.5 C338.47 32.41, 340.04 43.02, 340 58.5 M340 19.5 C340.86 28.45, 340.48 37.44, 340 58.5 M340 58.5 C340.02 69.89, 332.16 76.63, 320.5 78 M340 58.5 C339.12 69.21, 332.71 78.81, 320.5 78 M320.5 78 C205.85 79.14, 91.8 78.11, 19.5 78 M320.5 78 C219.14 78.17, 118.67 78.24, 19.5 78 M19.5 78 C5.08 77.58, -1.4 72.59, 0 58.5 M19.5 78 C4.95 77.89, -1.52 69.26, 0 58.5 M0 58.5 C-1.97 47.32, -1.38 39.34, 0 19.5 M0 58.5 C-0.42 49.88, 0.48 39.51, 0 19.5 M0 19.5 C0.37 7.9, 8.17 0.72, 19.5 0 M0 19.5 C-0.15 5.87, 6.28 -1.16, 19.5 0" stroke="#1e1e1e" stroke-width="2" fill="none"></path></g><g transform="translate(641.16 782.5) rotate(0 114.83999999999997 22.5)"><text x="114.83999999999999" y="16.1103515625" font-family="Helvetica, Segoe UI Emoji" font-size="18px" fill="#1e1e1e" text-anchor="middle" style="white-space: pre;" direction="ltr" dominant-baseline="alphabetic">Summarize Descriptions</text><text x="114.83999999999999" y="38.6103515625" font-family="Helvetica, Segoe UI Emoji" font-size="18px" fill="#1e1e1e" text-anchor="middle" style="white-space: pre;" direction="ltr" dominant-baseline="alphabetic">描述摘要</text></g><g stroke-linecap="round" transform="translate(566 886) rotate(0 190 39)"><path d="M19.5 0 C112.97 2.08, 209.12 4.02, 360.5 0 C376.44 0.63, 377.55 4.79, 380 19.5 C383.24 26.82, 377.01 39.25, 380 58.5 C379.75 73.1, 374.01 81.35, 360.5 78 C262.93 77.38, 168.25 73.2, 19.5 78 C8.14 81.22, -0.79 72.07, 0 58.5 C-0.51 48.86, 1.56 39.06, 0 19.5 C-2.55 7.82, 7.42 0.15, 19.5 0" stroke="none" stroke-width="0" fill="#e9ecef"></path><path d="M19.5 0 C119.14 -0.35, 216.34 -1.61, 360.5 0 M19.5 0 C151.6 -2.37, 284.42 -2.66, 360.5 0 M360.5 0 C371.55 0.72, 380.91 6.94, 380 19.5 M360.5 0 C373.37 -0.5, 381.36 6.49, 380 19.5 M380 19.5 C380.63 33.01, 380.26 45.13, 380 58.5 M380 19.5 C379.04 28.75, 379.05 38.35, 380 58.5 M380 58.5 C379.22 72.28, 375.22 78.81, 360.5 78 M380 58.5 C378.04 73.12, 372.31 79.22, 360.5 78 M360.5 78 C227.61 77.49, 94.14 75.98, 19.5 78 M360.5 78 C275 78.89, 190.22 78.33, 19.5 78 M19.5 78 C4.72 79.8, -1.91 72.21, 0 58.5 M19.5 78 C7.39 79.56, -0.61 73.25, 0 58.5 M0 58.5 C-0.87 42.19, 1.93 29.26, 0 19.5 M0 58.5 C-0.09 49.23, 0.95 41.59, 0 19.5 M0 19.5 C-0.67 5.86, 4.89 0.54, 19.5 0 M0 19.5 C1.04 8.31, 4.9 -2.19, 19.5 0" stroke="#1e1e1e" stroke-width="2" fill="none"></path></g><g transform="translate(641.16 902.5) rotate(0 114.83999999999997 22.5)"><text x="114.83999999999999" y="16.1103515625" font-family="Helvetica, Segoe UI Emoji" font-size="18px" fill="#1e1e1e" text-anchor="middle" style="white-space: pre;" direction="ltr" dominant-baseline="alphabetic">Entities/Relationships</text><text x="114.83999999999999" y="38.6103515625" font-family="Helvetica, Segoe UI Emoji" font-size="18px" fill="#1e1e1e" text-anchor="middle" style="white-space: pre;" direction="ltr" dominant-baseline="alphabetic">实体关系表</text></g><g stroke-linecap="round" transform="translate(46 1036) rotate(0 180 39)"><path d="M19.5 0 C109.88 0.04, 204.39 -0.6, 340.5 0 C354.13 1.18, 361.02 3.94, 360 19.5 C362.51 27.97, 357.82 40.83, 360 58.5 C357.37 70.29, 349.91 75.45, 340.5 78 C213.18 77.14, 86.11 76.84, 19.5 78 C9.94 75.98, 2.44 73.56, 0 58.5 C3.42 47.62, 2.62 37.17, 0 19.5 C1.02 4.01, 4.16 3.4, 19.5 0" stroke="none" stroke-width="0" fill="#b2f2bb"></path><path d="M19.5 0 C86 -2.06, 152.99 -0.58, 340.5 0 M19.5 0 C134.67 1.26, 249.72 1.77, 340.5 0 M340.5 0 C352.69 -1.45, 359.23 6.02, 360 19.5 M340.5 0 C353.7 1.34, 359.23 4.92, 360 19.5 M360 19.5 C359.94 33.29, 360.64 50.06, 360 58.5 M360 19.5 C360.35 35.23, 359.52 49.41, 360 58.5 M360 58.5 C358.65 71.53, 351.91 76.42, 340.5 78 M360 58.5 C360.09 70.75, 352 76.35, 340.5 78 M340.5 78 C219.95 77.8, 97.3 77.88, 19.5 78 M340.5 78 C269.87 75.34, 197.8 76.2, 19.5 78 M19.5 78 C5.51 77.46, -1.53 72.22, 0 58.5 M19.5 78 C4.76 79.72, -1.4 69.46, 0 58.5 M0 58.5 C-0.4 51.21, -0.44 43.17, 0 19.5 M0 58.5 C0.53 44.72, -0.88 30.31, 0 19.5 M0 19.5 C-0.18 5.32, 7.24 0.19, 19.5 0 M0 19.5 C0.99 6.34, 8.21 1.18, 19.5 0" stroke="#1e1e1e" stroke-width="2" fill="none"></path></g><g transform="translate(132.04000000000002 1052.5) rotate(0 93.96000000000001 22.5)"><text x="93.96" y="16.1103515625" font-family="Helvetica, Segoe UI Emoji" font-size="18px" fill="#1e1e1e" text-anchor="middle" style="white-space: pre;" direction="ltr" dominant-baseline="alphabetic">extract_covariates</text><text x="93.96" y="38.6103515625" font-family="Helvetica, Segoe UI Emoji" font-size="18px" fill="#1e1e1e" text-anchor="middle" style="white-space: pre;" direction="ltr" dominant-baseline="alphabetic">抽取协变量</text></g><g stroke-linecap="round" transform="translate(36 1156) rotate(0 190 46)"><path d="M23 0 C108.86 -5.12, 196.45 -1.47, 357 0 C375.45 -0.58, 382.72 10.08, 380 23 C380.24 42.36, 381.04 51.88, 380 69 C380.09 86.74, 374.03 92.21, 357 92 C278.12 97.08, 202.14 97.67, 23 92 C11.23 90.69, -3.51 85.57, 0 69 C-3.75 53.2, -0.27 37.24, 0 23 C-2.63 11.14, 6.63 1.85, 23 0" stroke="none" stroke-width="0" fill="#ffec99"></path><path d="M23 0 C100 -0.98, 178.5 0.68, 357 0 M23 0 C147.93 -1.51, 271.95 -1.79, 357 0 M357 0 C372.57 0.58, 378.39 9.62, 380 23 M357 0 C372.31 1.94, 379.35 6.57, 380 23 M380 23 C378.42 41.89, 378.62 58.98, 380 69 M380 23 C380.85 41.76, 380.74 59.16, 380 69 M380 69 C380.62 83.96, 370.47 91.12, 357 92 M380 69 C381.84 85.58, 373.97 91.56, 357 92 M357 92 C289.33 92.42, 218.64 92.88, 23 92 M357 92 C243.12 90.68, 130.31 90.61, 23 92 M23 92 C6.12 91.85, 0.18 82.95, 0 69 M23 92 C5.48 90.27, -1.64 83.73, 0 69 M0 69 C1.39 55.52, -0.2 41.8, 0 23 M0 69 C-0.19 57.36, 0.17 44.6, 0 23 M0 23 C-0.98 6, 9.3 -0.2, 23 0 M0 23 C-0.28 6.77, 9.53 -0.53, 23 0" stroke="#1e1e1e" stroke-width="2" fill="none"></path></g><g transform="translate(132.04000000000002 1179.5) rotate(0 93.96000000000001 22.5)"><text x="93.96" y="16.1103515625" font-family="Helvetica, Segoe UI Emoji" font-size="18px" fill="#1e1e1e" text-anchor="middle" style="white-space: pre;" direction="ltr" dominant-baseline="alphabetic">Claims prompt</text><text x="93.96" y="38.6103515625" font-family="Helvetica, Segoe UI Emoji" font-size="18px" fill="#1e1e1e" text-anchor="middle" style="white-space: pre;" direction="ltr" dominant-baseline="alphabetic">extract_claims 提示词</text></g><g stroke-linecap="round" transform="translate(96 1286) rotate(0 130 39)"><path d="M19.5 0 C60.72 0.22, 110.09 2.1, 240.5 0 C254.14 2.69, 258.32 3.71, 260 19.5 C263.08 31.55, 257.52 45.7, 260 58.5 C262.03 74.14, 255.17 80.75, 240.5 78 C173.16 77.73, 100.17 74.14, 19.5 78 C3.38 79.74, 3.21 70.74, 0 58.5 C0.44 45.99, -2.08 31.1, 0 19.5 C-2.22 3.16, 9.26 -2.31, 19.5 0" stroke="none" stroke-width="0" fill="#e9ecef"></path><path d="M19.5 0 C83.42 1.85, 151.17 2.43, 240.5 0 M19.5 0 C85.29 2.25, 151.01 0.95, 240.5 0 M240.5 0 C255.35 0.33, 260.65 6.53, 260 19.5 M240.5 0 C255.73 -2.25, 260.4 4.57, 260 19.5 M260 19.5 C259.22 34.5, 259.66 44.8, 260 58.5 M260 19.5 C260.25 29.64, 259.62 40.29, 260 58.5 M260 58.5 C258.48 72.28, 254.1 78.86, 240.5 78 M260 58.5 C259.94 72.55, 252.21 76.15, 240.5 78 M240.5 78 C182.71 78.59, 126.88 78.26, 19.5 78 M240.5 78 C156.52 78.08, 73.3 76.76, 19.5 78 M19.5 78 C4.7 77.9, 1.51 70.42, 0 58.5 M19.5 78 C4.33 76.44, -0.28 70.77, 0 58.5 M0 58.5 C0.23 44.72, -2.08 33.14, 0 19.5 M0 58.5 C-0.06 43.72, -0.4 30.98, 0 19.5 M0 19.5 C0.73 6.5, 6.96 0.61, 19.5 0 M0 19.5 C-0.66 4.44, 4.74 -0.93, 19.5 0" stroke="#1e1e1e" stroke-width="2" fill="none"></path></g><g transform="translate(137.26 1302.5) rotate(0 88.74000000000001 22.5)"><text x="88.74" y="16.1103515625" font-family="Helvetica, Segoe UI Emoji" font-size="18px" fill="#1e1e1e" text-anchor="middle" style="white-space: pre;" direction="ltr" dominant-baseline="alphabetic">Covariates/Claims</text><text x="88.74" y="38.6103515625" font-family="Helvetica, Segoe UI Emoji" font-size="18px" fill="#1e1e1e" text-anchor="middle" style="white-space: pre;" direction="ltr" dominant-baseline="alphabetic">协变量与声明</text></g><g stroke-linecap="round" transform="translate(1106 1036) rotate(0 180 39)"><path d="M19.5 0 C123.66 -2.91, 224.99 1.35, 340.5 0 C356.85 3.46, 359.99 6.97, 360 19.5 C356.42 33.24, 356.43 42.6, 360 58.5 C358.31 69.15, 356.97 76.86, 340.5 78 C259.49 74.31, 178.65 72.92, 19.5 78 C7.09 78.1, -0.88 70.88, 0 58.5 C1.26 49.21, 2.39 40.04, 0 19.5 C1.56 4.9, 7.18 3.16, 19.5 0" stroke="none" stroke-width="0" fill="#b2f2bb"></path><path d="M19.5 0 C105.57 2.07, 193.54 1.25, 340.5 0 M19.5 0 C115.61 -0.28, 210.56 0.04, 340.5 0 M340.5 0 C355.37 -0.6, 361.31 5.63, 360 19.5 M340.5 0 C354.26 -1.39, 358.2 5.55, 360 19.5 M360 19.5 C358.93 30.75, 361.06 39.25, 360 58.5 M360 19.5 C360.68 32.93, 360.65 48.51, 360 58.5 M360 58.5 C358.72 72.06, 355.31 78.98, 340.5 78 M360 58.5 C359.04 73.58, 352.62 80.25, 340.5 78 M340.5 78 C211.82 79.86, 85.37 78.15, 19.5 78 M340.5 78 C260.02 76.62, 178.35 77.26, 19.5 78 M19.5 78 C7.4 78.25, 1.72 71.87, 0 58.5 M19.5 78 C5.19 79.9, -0.93 71.19, 0 58.5 M0 58.5 C1.08 45.12, -0.17 32.67, 0 19.5 M0 58.5 C0.3 51.47, -0.5 43.1, 0 19.5 M0 19.5 C0.76 5.02, 7.02 -0.48, 19.5 0 M0 19.5 C1.4 7.58, 4.87 -0.41, 19.5 0" stroke="#1e1e1e" stroke-width="2" fill="none"></path></g><g transform="translate(1192.04 1052.5) rotate(0 93.96000000000004 22.5)"><text x="93.96" y="16.1103515625" font-family="Helvetica, Segoe UI Emoji" font-size="18px" fill="#1e1e1e" text-anchor="middle" style="white-space: pre;" direction="ltr" dominant-baseline="alphabetic">create_communities</text><text x="93.96" y="38.6103515625" font-family="Helvetica, Segoe UI Emoji" font-size="18px" fill="#1e1e1e" text-anchor="middle" style="white-space: pre;" direction="ltr" dominant-baseline="alphabetic">社区划分</text></g><g stroke-linecap="round" transform="translate(1086 1156) rotate(0 200 39)"><path d="M19.5 0 C100.07 1.68, 182.64 0.72, 380.5 0 C394.47 2.86, 397.72 8.06, 400 19.5 C398.34 30.52, 398.23 42.35, 400 58.5 C399.23 72.56, 390 78.59, 380.5 78 C282.46 77.51, 188.22 76.54, 19.5 78 C3.64 76.99, 0.05 70.99, 0 58.5 C3.29 53.21, 0.69 43.98, 0 19.5 C3.27 8.75, 2.99 -0.32, 19.5 0" stroke="none" stroke-width="0" fill="#e9ecef"></path><path d="M19.5 0 C120.97 2.34, 220.22 0.3, 380.5 0 M19.5 0 C155.94 -0.61, 291.65 -1.35, 380.5 0 M380.5 0 C393.95 0.63, 398.38 8.49, 400 19.5 M380.5 0 C395.73 1.05, 400.71 6.43, 400 19.5 M400 19.5 C399.32 32.62, 401.55 45.72, 400 58.5 M400 19.5 C400.11 31.32, 399.54 41.45, 400 58.5 M400 58.5 C400.93 70.33, 392.22 78.1, 380.5 78 M400 58.5 C400.64 73.65, 392.03 78.99, 380.5 78 M380.5 78 C271.58 76.66, 165.46 77.46, 19.5 78 M380.5 78 C247.35 77.1, 115.11 76.88, 19.5 78 M19.5 78 C7.08 76.24, 1.45 73.49, 0 58.5 M19.5 78 C8.47 77.1, -1.75 70.18, 0 58.5 M0 58.5 C-0.24 45.74, -0.26 28.16, 0 19.5 M0 58.5 C-0.39 48.51, -0.32 36.48, 0 19.5 M0 19.5 C0.39 4.96, 6.37 -0.06, 19.5 0 M0 19.5 C1.19 6.44, 6.26 1.84, 19.5 0" stroke="#1e1e1e" stroke-width="2" fill="none"></path></g><g transform="translate(1160.72 1172.5) rotate(0 125.27999999999997 22.5)"><text x="125.27999999999999" y="16.1103515625" font-family="Helvetica, Segoe UI Emoji" font-size="18px" fill="#1e1e1e" text-anchor="middle" style="white-space: pre;" direction="ltr" dominant-baseline="alphabetic">Hierarchical Communities</text><text x="125.27999999999999" y="38.6103515625" font-family="Helvetica, Segoe UI Emoji" font-size="18px" fill="#1e1e1e" text-anchor="middle" style="white-space: pre;" direction="ltr" dominant-baseline="alphabetic">分层社区</text></g><g stroke-linecap="round" transform="translate(566 1286) rotate(0 190 39)"><path d="M19.5 0 C116.42 1.67, 215.2 -2.42, 360.5 0 C375.84 -0.18, 376.94 4.56, 380 19.5 C383.29 28.73, 378.3 38.54, 380 58.5 C378.95 74.05, 374.55 77.71, 360.5 78 C247.41 73.69, 133.49 75.22, 19.5 78 C3.59 81.18, -1.94 74.09, 0 58.5 C1.4 41.32, 0.02 31.94, 0 19.5 C0.05 4.72, 6.33 -0.38, 19.5 0" stroke="none" stroke-width="0" fill="#b2f2bb"></path><path d="M19.5 0 C125.74 1.01, 232.88 0.94, 360.5 0 M19.5 0 C150.86 -1.35, 282.8 -1.38, 360.5 0 M360.5 0 C375.41 0.95, 378.01 7.51, 380 19.5 M360.5 0 C371.64 0.74, 378.49 8.51, 380 19.5 M380 19.5 C381.41 36.41, 381.03 49.38, 380 58.5 M380 19.5 C379.35 28.86, 379.71 38.37, 380 58.5 M380 58.5 C380.56 69.79, 373.47 76.44, 360.5 78 M380 58.5 C378.29 72, 373.89 76.69, 360.5 78 M360.5 78 C241.17 75.78, 121.09 75.36, 19.5 78 M360.5 78 C251.18 79.36, 142.01 79.67, 19.5 78 M19.5 78 C6.97 77.72, 0.8 73.08, 0 58.5 M19.5 78 C7.5 77.5, 1.61 73.6, 0 58.5 M0 58.5 C-0.38 43.76, -1.36 32.76, 0 19.5 M0 58.5 C-0.24 47.94, 0.54 35.16, 0 19.5 M0 19.5 C1.84 6.89, 7.86 -1.13, 19.5 0 M0 19.5 C1.93 6.5, 4.33 0.57, 19.5 0" stroke="#1e1e1e" stroke-width="2" fill="none"></path></g><g transform="translate(630.72 1302.5) rotate(0 125.27999999999997 22.5)"><text x="125.27999999999999" y="16.1103515625" font-family="Helvetica, Segoe UI Emoji" font-size="18px" fill="#1e1e1e" text-anchor="middle" style="white-space: pre;" direction="ltr" dominant-baseline="alphabetic">create_community_reports</text><text x="125.27999999999999" y="38.6103515625" font-family="Helvetica, Segoe UI Emoji" font-size="18px" fill="#1e1e1e" text-anchor="middle" style="white-space: pre;" direction="ltr" dominant-baseline="alphabetic">生成社区报告</text></g><g stroke-linecap="round" transform="translate(566 1406) rotate(0 190 46)"><path d="M23 0 C97.1 0.46, 174.66 3.81, 357 0 C369.11 1.88, 377.28 11.26, 380 23 C377.6 36.64, 380.78 58.85, 380 69 C380.92 87.28, 375.8 94.46, 357 92 C245.98 94.34, 130.5 95.83, 23 92 C5.54 90.6, -0.71 83.34, 0 69 C0.91 57.88, -2.34 42.02, 0 23 C2.96 7.94, 10.07 -3.46, 23 0" stroke="none" stroke-width="0" fill="#ffec99"></path><path d="M23 0 C134.99 0.54, 247.86 0.1, 357 0 M23 0 C116.55 -1.82, 209.39 -2.45, 357 0 M357 0 C372.06 -0.25, 379.11 8.94, 380 23 M357 0 C370.57 -0.06, 381.97 7.89, 380 23 M380 23 C378.79 36.02, 377.66 49.85, 380 69 M380 23 C380.1 37.17, 379.58 50.16, 380 69 M380 69 C381.54 84.9, 374.14 92.7, 357 92 M380 69 C378.33 84.78, 373.75 91.46, 357 92 M357 92 C237.89 93.59, 118.23 91.91, 23 92 M357 92 C237.74 91.83, 118.47 92.84, 23 92 M23 92 C8.31 90.46, -1.31 84.31, 0 69 M23 92 C6.31 90.51, 0.99 82.25, 0 69 M0 69 C1.36 58.39, -0.76 46.21, 0 23 M0 69 C0.02 56.16, -0.56 42.85, 0 23 M0 23 C1.48 9.01, 8.66 -0.97, 23 0 M0 23 C0.27 6.36, 7.88 -1.98, 23 0" stroke="#1e1e1e" stroke-width="2" fill="none"></path></g><g transform="translate(635.94 1429.5) rotate(0 120.06 22.5)"><text x="120.05999999999999" y="16.1103515625" font-family="Helvetica, Segoe UI Emoji" font-size="18px" fill="#1e1e1e" text-anchor="middle" style="white-space: pre;" direction="ltr" dominant-baseline="alphabetic">Community Report prompt</text><text x="120.05999999999999" y="38.6103515625" font-family="Helvetica, Segoe UI Emoji" font-size="18px" fill="#1e1e1e" text-anchor="middle" style="white-space: pre;" direction="ltr" dominant-baseline="alphabetic">社区报告提示词</text></g><g stroke-linecap="round" transform="translate(566 1536) rotate(0 190 39)"><path d="M19.5 0 C88.97 1.48, 158.12 3.14, 360.5 0 C375.13 -2.4, 377.17 7.56, 380 19.5 C377.61 26.54, 376.79 38.34, 380 58.5 C380.23 70.78, 376.38 75.63, 360.5 78 C262.55 73.13, 168.5 73.6, 19.5 78 C4.95 76.81, -2.92 70.9, 0 58.5 C-2.24 44.51, 3.03 32.25, 0 19.5 C1.89 7.13, 3.81 1.23, 19.5 0" stroke="none" stroke-width="0" fill="#e9ecef"></path><path d="M19.5 0 C90.04 1.55, 158.26 0.13, 360.5 0 M19.5 0 C130.37 -1.87, 240.83 -2.06, 360.5 0 M360.5 0 C374.41 -0.46, 378.78 7.39, 380 19.5 M360.5 0 C375.35 1.32, 378.06 5.62, 380 19.5 M380 19.5 C380.67 31.94, 378.87 43.42, 380 58.5 M380 19.5 C379.71 32.52, 379.68 45.97, 380 58.5 M380 58.5 C378.5 72.01, 372.06 76.07, 360.5 78 M380 58.5 C381.21 71.8, 371.57 78.43, 360.5 78 M360.5 78 C223.36 76.78, 87.91 75.98, 19.5 78 M360.5 78 C262.2 79.77, 163.23 79.05, 19.5 78 M19.5 78 C7.27 79.86, 0.12 70.84, 0 58.5 M19.5 78 C7.66 77.39, -1.86 72.39, 0 58.5 M0 58.5 C-0.83 48.05, 0.6 35.76, 0 19.5 M0 58.5 C-0.66 47.52, -1.15 36.38, 0 19.5 M0 19.5 C-1.71 5.04, 6.58 0.92, 19.5 0 M0 19.5 C-1.67 6.37, 4.59 -2.25, 19.5 0" stroke="#1e1e1e" stroke-width="2" fill="none"></path></g><g transform="translate(667.26 1552.5) rotate(0 88.74000000000001 22.5)"><text x="88.74" y="16.1103515625" font-family="Helvetica, Segoe UI Emoji" font-size="18px" fill="#1e1e1e" text-anchor="middle" style="white-space: pre;" direction="ltr" dominant-baseline="alphabetic">community_reports</text><text x="88.74" y="38.6103515625" font-family="Helvetica, Segoe UI Emoji" font-size="18px" fill="#1e1e1e" text-anchor="middle" style="white-space: pre;" direction="ltr" dominant-baseline="alphabetic">报告结果</text></g><g stroke-linecap="round" transform="translate(566 1656) rotate(0 190 39)"><path d="M19.5 0 C107.19 0.38, 198.22 -1.83, 360.5 0 C373.99 -1.15, 379.47 3.64, 380 19.5 C382.32 30.64, 377.34 38.99, 380 58.5 C376.72 71.88, 371.18 78.16, 360.5 78 C284.95 79.71, 213.31 77.19, 19.5 78 C4.77 77.12, -0.81 73.41, 0 58.5 C0.72 49.79, 0.74 42.51, 0 19.5 C-1.83 5.1, 7.42 2.97, 19.5 0" stroke="none" stroke-width="0" fill="#ffc9c9"></path><path d="M19.5 0 C143.65 1.52, 265.51 0.54, 360.5 0 M19.5 0 C91.14 -2.14, 162.41 -2.18, 360.5 0 M360.5 0 C374.23 1.05, 379.88 5.94, 380 19.5 M360.5 0 C374.61 0.76, 378.97 4.36, 380 19.5 M380 19.5 C380.46 34.8, 380 48.76, 380 58.5 M380 19.5 C379.62 35.27, 380.34 50.64, 380 58.5 M380 58.5 C381.48 70.14, 374.63 78.22, 360.5 78 M380 58.5 C380.57 73.19, 373.12 78.19, 360.5 78 M360.5 78 C254.89 79.35, 148.04 78.3, 19.5 78 M360.5 78 C281.9 79.82, 202.6 79.99, 19.5 78 M19.5 78 C7.64 78.76, 0.46 72.43, 0 58.5 M19.5 78 C6.73 80.08, 0.8 70.58, 0 58.5 M0 58.5 C-0.31 47.85, -0.61 35.52, 0 19.5 M0 58.5 C-0.08 44.66, 0.18 30.47, 0 19.5 M0 19.5 C0.62 4.63, 5.34 1.27, 19.5 0 M0 19.5 C-0.54 5.27, 7.16 0.71, 19.5 0" stroke="#1e1e1e" stroke-width="2" fill="none"></path></g><g transform="translate(630.72 1672.5) rotate(0 125.27999999999997 22.5)"><text x="125.27999999999999" y="16.1103515625" font-family="Helvetica, Segoe UI Emoji" font-size="18px" fill="#1e1e1e" text-anchor="middle" style="white-space: pre;" direction="ltr" dominant-baseline="alphabetic">generate_text_embeddings</text><text x="125.27999999999999" y="38.6103515625" font-family="Helvetica, Segoe UI Emoji" font-size="18px" fill="#1e1e1e" text-anchor="middle" style="white-space: pre;" direction="ltr" dominant-baseline="alphabetic">生成向量</text></g><g stroke-linecap="round"><g transform="translate(756 114) rotate(0 0 21)"><path d="M0.46 -0.43 C0.54 6.48, 0.5 34.46, 0.43 41.5 M0.03 0.55 C0.09 7.5, 0.27 34.98, 0.22 41.94" stroke="#1e1e1e" stroke-width="2" fill="none"></path></g><g transform="translate(756 114) rotate(0 0 21)"><path d="M-6.98 22.22 C-5.7 28.58, -3.78 33.53, 0.22 41.94 M-6.98 22.22 C-4.56 27.97, -2.76 32.49, 0.22 41.94" stroke="#1e1e1e" stroke-width="2" fill="none"></path></g><g transform="translate(756 114) rotate(0 0 21)"><path d="M7.38 22.21 C4.58 28.63, 2.41 33.58, 0.22 41.94 M7.38 22.21 C5.94 27.89, 3.87 32.41, 0.22 41.94" stroke="#1e1e1e" stroke-width="2" fill="none"></path></g></g><mask></mask><g stroke-linecap="round"><g transform="translate(756 234) rotate(0 0 21)"><path d="M0.12 -0.05 C-0.01 6.95, -0.55 34.69, -0.49 41.77 M-0.48 -0.54 C-0.47 6.54, 0.35 35.33, 0.49 42.35" stroke="#1e1e1e" stroke-width="2" fill="none"></path></g><g transform="translate(756 234) rotate(0 0 21)"><path d="M-7.18 22.8 C-4.57 28.83, -2.19 37.53, 0.49 42.35 M-7.18 22.8 C-4.56 30.57, -1.4 37.72, 0.49 42.35" stroke="#1e1e1e" stroke-width="2" fill="none"></path></g><g transform="translate(756 234) rotate(0 0 21)"><path d="M7.18 22.45 C4.69 28.62, 1.98 37.44, 0.49 42.35 M7.18 22.45 C4.35 30.37, 2.07 37.65, 0.49 42.35" stroke="#1e1e1e" stroke-width="2" fill="none"></path></g></g><mask></mask><g stroke-linecap="round"><g transform="translate(756 354) rotate(0 0 21)"><path d="M-0.32 -0.33 C-0.28 6.6, 0.36 34.53, 0.44 41.56 M0.51 0.69 C0.5 7.68, 0.35 35.09, 0.24 42.04" stroke="#1e1e1e" stroke-width="2" fill="none"></path></g><g transform="translate(756 354) rotate(0 0 21)"><path d="M-6.75 22.23 C-4.99 29.78, -2.81 35.97, 0.24 42.04 M-6.75 22.23 C-4.99 27.48, -3.17 32.7, 0.24 42.04" stroke="#1e1e1e" stroke-width="2" fill="none"></path></g><g transform="translate(756 354) rotate(0 0 21)"><path d="M7.61 22.37 C4.5 29.83, 1.8 35.97, 0.24 42.04 M7.61 22.37 C5.45 27.53, 3.34 32.71, 0.24 42.04" stroke="#1e1e1e" stroke-width="2" fill="none"></path></g></g><mask></mask><g stroke-linecap="round"><g transform="translate(756 474) rotate(0 0 21)"><path d="M0.49 0.47 C0.4 7.58, -0.4 35.22, -0.46 42.08 M0.07 0.24 C0.15 7.49, 0.58 35.85, 0.54 42.83" stroke="#1e1e1e" stroke-width="2" fill="none"></path></g><g transform="translate(756 474) rotate(0 0 21)"><path d="M-6.76 23.14 C-3.77 28.29, -2.24 35.35, 0.54 42.83 M-6.76 23.14 C-5.12 27.88, -2.95 32.74, 0.54 42.83" stroke="#1e1e1e" stroke-width="2" fill="none"></path></g><g transform="translate(756 474) rotate(0 0 21)"><path d="M7.6 23.05 C6.21 28.29, 3.34 35.38, 0.54 42.83 M7.6 23.05 C5.76 27.78, 4.45 32.66, 0.54 42.83" stroke="#1e1e1e" stroke-width="2" fill="none"></path></g></g><mask></mask><g stroke-linecap="round"><g transform="translate(756 608) rotate(0 0 19)"><path d="M0.37 -0.43 C0.37 6.04, 0.34 32.05, 0.28 38.47 M-0.11 0.53 C-0.18 6.9, 0.03 31.38, 0 37.75" stroke="#1e1e1e" stroke-width="2" fill="none"></path></g><g transform="translate(756 608) rotate(0 0 19)"><path d="M-6.54 19.91 C-5.08 26.59, -1.23 32.35, 0 37.75 M-6.54 19.91 C-4.84 25.19, -2.49 30.78, 0 37.75" stroke="#1e1e1e" stroke-width="2" fill="none"></path></g><g transform="translate(756 608) rotate(0 0 19)"><path d="M6.46 19.88 C3.39 26.62, 2.71 32.38, 0 37.75 M6.46 19.88 C4.03 25.2, 2.25 30.8, 0 37.75" stroke="#1e1e1e" stroke-width="2" fill="none"></path></g></g><mask></mask><g stroke-linecap="round"><g transform="translate(756 724) rotate(0 0 21)"><path d="M0.43 0.49 C0.37 7.59, -0.33 35.39, -0.31 42.28 M-0.01 0.27 C0.11 7.23, 0.68 34.45, 0.76 41.45" stroke="#1e1e1e" stroke-width="2" fill="none"></path></g><g transform="translate(756 724) rotate(0 0 21)"><path d="M-6.75 21.84 C-3.6 27.29, -1.68 34.87, 0.76 41.45 M-6.75 21.84 C-4.75 27.5, -2.7 32.1, 0.76 41.45" stroke="#1e1e1e" stroke-width="2" fill="none"></path></g><g transform="translate(756 724) rotate(0 0 21)"><path d="M7.61 21.6 C6.34 27.18, 3.84 34.83, 0.76 41.45 M7.61 21.6 C5.84 27.29, 4.11 31.95, 0.76 41.45" stroke="#1e1e1e" stroke-width="2" fill="none"></path></g></g><mask></mask><g stroke-linecap="round"><g transform="translate(756 844) rotate(0 0 21)"><path d="M-0.12 0.33 C-0.02 7.4, 0.32 35.39, 0.43 42.27 M0.82 0.02 C0.9 6.95, 0.28 34.44, 0.21 41.45" stroke="#1e1e1e" stroke-width="2" fill="none"></path></g><g transform="translate(756 844) rotate(0 0 21)"><path d="M-6.65 21.6 C-4.22 27.77, -2.46 33.35, 0.21 41.45 M-6.65 21.6 C-5.21 26.68, -2.96 31.42, 0.21 41.45" stroke="#1e1e1e" stroke-width="2" fill="none"></path></g><g transform="translate(756 844) rotate(0 0 21)"><path d="M7.71 21.83 C6.24 27.93, 4.11 33.44, 0.21 41.45 M7.71 21.83 C5.77 26.89, 4.63 31.58, 0.21 41.45" stroke="#1e1e1e" stroke-width="2" fill="none"></path></g></g><mask></mask><g stroke-linecap="round"><g transform="translate(566 925) rotate(0 -80 75)"><path d="M0.57 0.56 C-26.02 25.79, -133.26 125.36, -160.13 150.36 M-0.6 -0.19 C-27.3 24.75, -134.28 123.65, -161.14 148.43" stroke="#1e1e1e" stroke-width="2" fill="none"></path></g><g transform="translate(566 925) rotate(0 -80 75)"><path d="M-149.69 126.21 C-151.8 131.62, -155 136.34, -161.14 148.43 M-149.69 126.21 C-153.79 133.7, -158.38 140.97, -161.14 148.43" stroke="#1e1e1e" stroke-width="2" fill="none"></path></g><g transform="translate(566 925) rotate(0 -80 75)"><path d="M-138.08 138.77 C-143 141.09, -149.11 142.66, -161.14 148.43 M-138.08 138.77 C-146.1 141.96, -154.73 144.86, -161.14 148.43" stroke="#1e1e1e" stroke-width="2" fill="none"></path></g></g><mask></mask><g stroke-linecap="round"><g transform="translate(226 1114) rotate(0 0 21)"><path d="M0.44 -0.28 C0.47 6.78, 0.22 35.35, 0.23 42.35 M0 0.76 C-0.02 7.67, -0.15 34.66, -0.08 41.56" stroke="#1e1e1e" stroke-width="2" fill="none"></path></g><g transform="translate(226 1114) rotate(0 0 21)"><path d="M-7.3 21.84 C-5.62 28.26, -2.26 34.79, -0.08 41.56 M-7.3 21.84 C-5.73 26.4, -3.37 31.91, -0.08 41.56" stroke="#1e1e1e" stroke-width="2" fill="none"></path></g><g transform="translate(226 1114) rotate(0 0 21)"><path d="M7.07 21.81 C4.36 28.3, 3.32 34.84, -0.08 41.56 M7.07 21.81 C5.06 26.36, 3.85 31.88, -0.08 41.56" stroke="#1e1e1e" stroke-width="2" fill="none"></path></g></g><mask></mask><g stroke-linecap="round"><g transform="translate(226 1248) rotate(0 0 19)"><path d="M0.09 -0.13 C0.11 6.29, 0.5 31.71, 0.47 38.12 M-0.52 -0.68 C-0.57 5.61, 0.28 30.86, 0.28 37.21" stroke="#1e1e1e" stroke-width="2" fill="none"></path></g><g transform="translate(226 1248) rotate(0 0 19)"><path d="M-6.55 19.48 C-4.35 26.77, -1.43 32.26, 0.28 37.21 M-6.55 19.48 C-3.88 26.03, -1.45 31.8, 0.28 37.21" stroke="#1e1e1e" stroke-width="2" fill="none"></path></g><g transform="translate(226 1248) rotate(0 0 19)"><path d="M6.44 19.24 C3.89 26.62, 2.07 32.21, 0.28 37.21 M6.44 19.24 C4.48 25.91, 2.26 31.76, 0.28 37.21" stroke="#1e1e1e" stroke-width="2" fill="none"></path></g></g><mask></mask><g stroke-linecap="round"><g transform="translate(946 925) rotate(0 80 75)"><path d="M-0.39 0.87 C26 25.85, 132.14 124.74, 159.03 149.57 M1.6 0.29 C28.31 25.46, 134.72 125.74, 161.24 150.89" stroke="#1e1e1e" stroke-width="2" fill="none"></path></g><g transform="translate(946 925) rotate(0 80 75)"><path d="M138.29 140.97 C147.89 142.96, 153.89 149.74, 161.24 150.89 M138.29 140.97 C144.73 144.34, 151 146.93, 161.24 150.89" stroke="#1e1e1e" stroke-width="2" fill="none"></path></g><g transform="translate(946 925) rotate(0 80 75)"><path d="M150.03 128.54 C155.42 134.92, 157.24 146.12, 161.24 150.89 M150.03 128.54 C153.07 135.55, 155.92 141.76, 161.24 150.89" stroke="#1e1e1e" stroke-width="2" fill="none"></path></g></g><mask></mask><g stroke-linecap="round"><g transform="translate(1286 1114) rotate(0 0 21)"><path d="M-0.53 -0.5 C-0.56 6.49, -0.4 34.78, -0.3 41.83 M0.2 0.43 C0.36 7.52, 0.85 35.46, 0.77 42.45" stroke="#1e1e1e" stroke-width="2" fill="none"></path></g><g transform="translate(1286 1114) rotate(0 0 21)"><path d="M-6.52 22.75 C-5.41 27.75, -2.76 33.93, 0.77 42.45 M-6.52 22.75 C-4.25 28.29, -2.83 33.75, 0.77 42.45" stroke="#1e1e1e" stroke-width="2" fill="none"></path></g><g transform="translate(1286 1114) rotate(0 0 21)"><path d="M7.84 22.67 C4.93 27.62, 3.56 33.83, 0.77 42.45 M7.84 22.67 C6.24 28.3, 3.8 33.78, 0.77 42.45" stroke="#1e1e1e" stroke-width="2" fill="none"></path></g></g><mask></mask><g stroke-linecap="round"><g transform="translate(1086 1195) rotate(0 -70 65)"><path d="M-0.59 0.01 C-24.08 21.75, -117.06 108.87, -140.22 130.42 M1.29 -1.03 C-22.43 20.34, -117.71 106.63, -141.28 128.52" stroke="#1e1e1e" stroke-width="2" fill="none"></path></g><g transform="translate(1086 1195) rotate(0 -70 65)"><path d="M-129.73 106.35 C-133.87 113.89, -137.33 122.93, -141.28 128.52 M-129.73 106.35 C-131.61 111.59, -135.7 118.13, -141.28 128.52" stroke="#1e1e1e" stroke-width="2" fill="none"></path></g><g transform="translate(1086 1195) rotate(0 -70 65)"><path d="M-118.18 118.97 C-126.47 121.92, -134.09 126.42, -141.28 128.52 M-118.18 118.97 C-122.97 121.09, -129.89 124.56, -141.28 128.52" stroke="#1e1e1e" stroke-width="2" fill="none"></path></g></g><mask></mask><g stroke-linecap="round"><g transform="translate(356 1325) rotate(0 105 0)"><path d="M0.4 -0.62 C35.58 -0.65, 175.98 -0.52, 210.77 -0.48 M-0.85 1.66 C34.26 1.83, 174.83 0.97, 210.22 0.8" stroke="#1e1e1e" stroke-width="2" fill="none"></path></g><g transform="translate(356 1325) rotate(0 105 0)"><path d="M186.77 9.48 C192.18 8.3, 198.84 3.14, 210.22 0.8 M186.77 9.48 C193.98 8.12, 198.66 4.36, 210.22 0.8" stroke="#1e1e1e" stroke-width="2" fill="none"></path></g><g transform="translate(356 1325) rotate(0 105 0)"><path d="M186.68 -7.62 C192.07 -4.12, 198.75 -4.6, 210.22 0.8 M186.68 -7.62 C193.89 -4.46, 198.6 -3.69, 210.22 0.8" stroke="#1e1e1e" stroke-width="2" fill="none"></path></g></g><mask></mask><g stroke-linecap="round"><g transform="translate(756 964) rotate(0 0 161)"><path d="M0.21 0.92 C0.24 54.61, 0.34 267.79, 0.23 321.39 M-1.15 0.36 C-1.25 54.26, -0.54 269.25, -0.59 322.6" stroke="#1e1e1e" stroke-width="2" fill="none"></path></g><g transform="translate(756 964) rotate(0 0 161)"><path d="M-9.18 299.12 C-5.18 306.6, -5.14 312.55, -0.59 322.6 M-9.18 299.12 C-6.46 307.8, -3.05 315.22, -0.59 322.6" stroke="#1e1e1e" stroke-width="2" fill="none"></path></g><g transform="translate(756 964) rotate(0 0 161)"><path d="M7.93 299.1 C6.75 306.61, 1.61 312.57, -0.59 322.6 M7.93 299.1 C4.76 307.74, 2.3 315.17, -0.59 322.6" stroke="#1e1e1e" stroke-width="2" fill="none"></path></g></g><mask></mask><g stroke-linecap="round"><g transform="translate(756 1364) rotate(0 0 21)"><path d="M-0.41 0.37 C-0.37 7.46, 0.01 35.28, 0.06 42.26 M0.37 0.09 C0.37 7.04, -0.19 34.55, -0.35 41.43" stroke="#1e1e1e" stroke-width="2" fill="none"></path></g><g transform="translate(756 1364) rotate(0 0 21)"><path d="M-7.11 21.55 C-4.71 26.88, -3.14 31.71, -0.35 41.43 M-7.11 21.55 C-4.36 28.87, -2.78 36.08, -0.35 41.43" stroke="#1e1e1e" stroke-width="2" fill="none"></path></g><g transform="translate(756 1364) rotate(0 0 21)"><path d="M7.25 21.86 C5.9 27.05, 3.71 31.8, -0.35 41.43 M7.25 21.86 C4.9 29.04, 1.37 36.15, -0.35 41.43" stroke="#1e1e1e" stroke-width="2" fill="none"></path></g></g><mask></mask><g stroke-linecap="round"><g transform="translate(756 1498) rotate(0 0 19)"><path d="M-0.34 0.4 C-0.27 6.76, 0.34 32.15, 0.46 38.33 M0.48 0.13 C0.52 6.32, 0.31 31.25, 0.26 37.54" stroke="#1e1e1e" stroke-width="2" fill="none"></path></g><g transform="translate(756 1498) rotate(0 0 19)"><path d="M-6.1 19.63 C-3.47 25.82, -1.68 31.02, 0.26 37.54 M-6.1 19.63 C-4.52 23.12, -3.69 27.59, 0.26 37.54" stroke="#1e1e1e" stroke-width="2" fill="none"></path></g><g transform="translate(756 1498) rotate(0 0 19)"><path d="M6.9 19.73 C5.62 25.85, 3.51 31.02, 0.26 37.54 M6.9 19.73 C5.74 23.16, 3.81 27.61, 0.26 37.54" stroke="#1e1e1e" stroke-width="2" fill="none"></path></g></g><mask></mask><g stroke-linecap="round"><g transform="translate(756 1614) rotate(0 0 21)"><path d="M0.41 -0.38 C0.49 6.54, 0.42 34.47, 0.39 41.47 M-0.04 0.62 C0.01 7.59, 0.15 34.99, 0.16 41.9" stroke="#1e1e1e" stroke-width="2" fill="none"></path></g><g transform="translate(756 1614) rotate(0 0 21)"><path d="M-7.09 22.19 C-5.77 28.35, -4.03 33.55, 0.16 41.9 M-7.09 22.19 C-4.94 26.53, -3.45 31.18, 0.16 41.9" stroke="#1e1e1e" stroke-width="2" fill="none"></path></g><g transform="translate(756 1614) rotate(0 0 21)"><path d="M7.27 22.14 C4.6 28.36, 2.35 33.59, 0.16 41.9 M7.27 22.14 C6.08 26.48, 4.22 31.14, 0.16 41.9" stroke="#1e1e1e" stroke-width="2" fill="none"></path></g></g><mask></mask></svg>