<svg version="1.1" xmlns="http://www.w3.org/2000/svg" viewBox="0 0 1432 1250" width="1432" height="1250"><!-- svg-source:excalidraw --><metadata></metadata><defs><style class="style-fonts">
      </style></defs><rect x="0" y="0" width="1432" height="1250" fill="#ffffff"></rect><g stroke-linecap="round" transform="translate(586 36) rotate(0 130 39)"><path d="M19.5 0 C94.73 -0.15, 166.1 -2.74, 240.5 0 C254.18 2.94, 259.42 3.2, 260 19.5 C263.16 31.1, 258.43 44.98, 260 58.5 C261.92 74.14, 256.23 76.64, 240.5 78 C164.46 74.37, 89.41 78.16, 19.5 78 C5.07 78.25, -1.32 74.73, 0 58.5 C1.41 42.87, 3.28 31.32, 0 19.5 C0.36 9.55, 7.37 2.49, 19.5 0" stroke="none" stroke-width="0" fill="#a5d8ff"></path><path d="M19.5 0 C103.37 -0.58, 185.54 -0.35, 240.5 0 M19.5 0 C80.03 -0.2, 141.01 0.13, 240.5 0 M240.5 0 C254.76 -0.07, 261.35 7.02, 260 19.5 M240.5 0 C254.54 2.2, 259.63 6.47, 260 19.5 M260 19.5 C261.44 30.34, 262.08 37.8, 260 58.5 M260 19.5 C260.22 28.77, 260.76 39.39, 260 58.5 M260 58.5 C259.79 71.8, 253.57 78.31, 240.5 78 M260 58.5 C259.03 73.08, 255.65 76.02, 240.5 78 M240.5 78 C156.01 75.09, 70.12 75.04, 19.5 78 M240.5 78 C180.83 80.16, 120.24 78.82, 19.5 78 M19.5 78 C4.71 79.5, -0.18 69.71, 0 58.5 M19.5 78 C5.11 76.15, -0.77 70.74, 0 58.5 M0 58.5 C1.61 42, -0.39 29.51, 0 19.5 M0 58.5 C-0.99 43.44, -0.87 29.11, 0 19.5 M0 19.5 C-0.21 7.95, 7.96 -0.93, 19.5 0 M0 19.5 C0.38 7.13, 4.64 1.57, 19.5 0" stroke="#1e1e1e" stroke-width="2" fill="none"></path></g><g transform="translate(663.8 52.5) rotate(0 52.19999999999999 22.5)"><text x="52.199999999999996" y="16.1103515625" font-family="Helvetica, Segoe UI Emoji" font-size="18px" fill="#1e1e1e" text-anchor="middle" style="white-space: pre;" direction="ltr" dominant-baseline="alphabetic">User Query</text><text x="52.199999999999996" y="38.6103515625" font-family="Helvetica, Segoe UI Emoji" font-size="18px" fill="#1e1e1e" text-anchor="middle" style="white-space: pre;" direction="ltr" dominant-baseline="alphabetic">用户问题</text></g><g stroke-linecap="round" transform="translate(506 166) rotate(0 210 39)"><path d="M19.5 0 C103.82 -2, 185.95 -5.41, 400.5 0 C415.42 3.23, 417.52 3.54, 420 19.5 C420.31 36.55, 419.38 48.76, 420 58.5 C417.05 72.41, 416.25 81.19, 400.5 78 C296.18 73.12, 187.91 73.61, 19.5 78 C3.4 75.36, 2.3 68.24, 0 58.5 C-1.49 44.98, 1.27 29.35, 0 19.5 C1.79 5.8, 7.64 -0.11, 19.5 0" stroke="none" stroke-width="0" fill="#b2f2bb"></path><path d="M19.5 0 C138.36 2.77, 259.05 0.71, 400.5 0 M19.5 0 C147.2 -0.84, 276.4 -0.84, 400.5 0 M400.5 0 C412.34 1.4, 418.57 8.32, 420 19.5 M400.5 0 C414.55 -1.65, 420.23 6.21, 420 19.5 M420 19.5 C421.19 31.27, 418.67 45.79, 420 58.5 M420 19.5 C419.44 30.02, 419.32 40.25, 420 58.5 M420 58.5 C419.38 73.17, 414.9 76.7, 400.5 78 M420 58.5 C418.36 70.11, 412.24 79.91, 400.5 78 M400.5 78 C321.11 77.62, 242.37 78.4, 19.5 78 M400.5 78 C317.38 76.49, 233.49 76.35, 19.5 78 M19.5 78 C6.89 76.79, -0.86 70.97, 0 58.5 M19.5 78 C7.31 80.18, -2.17 70.44, 0 58.5 M0 58.5 C-0.01 46.37, -1.14 34.43, 0 19.5 M0 58.5 C0.18 48.02, -0.31 36.64, 0 19.5 M0 19.5 C0.21 8.22, 7.41 -0.69, 19.5 0 M0 19.5 C1.94 8.63, 8.65 -0.78, 19.5 0" stroke="#1e1e1e" stroke-width="2" fill="none"></path></g><g transform="translate(606.38 182.5) rotate(0 109.62 22.5)"><text x="109.61999999999999" y="16.1103515625" font-family="Helvetica, Segoe UI Emoji" font-size="18px" fill="#1e1e1e" text-anchor="middle" style="white-space: pre;" direction="ltr" dominant-baseline="alphabetic">map_query_to_entities</text><text x="109.61999999999999" y="38.6103515625" font-family="Helvetica, Segoe UI Emoji" font-size="18px" fill="#1e1e1e" text-anchor="middle" style="white-space: pre;" direction="ltr" dominant-baseline="alphabetic">问题映射实体</text></g><g stroke-linecap="round" transform="translate(586 296) rotate(0 130 39)"><path d="M19.5 0 C73.99 -4.22, 128.81 -1.81, 240.5 0 C257.04 -0.42, 256.83 5.15, 260 19.5 C261.86 28.06, 261.83 38.2, 260 58.5 C260.94 68.22, 255.39 79.46, 240.5 78 C186.23 74.61, 131.65 71.8, 19.5 78 C3.24 77.81, 2.3 71.87, 0 58.5 C-0.09 49.84, -2.56 44.58, 0 19.5 C-3.24 7.96, 4.6 2.7, 19.5 0" stroke="none" stroke-width="0" fill="#e9ecef"></path><path d="M19.5 0 C97.88 -0.7, 178.63 -0.85, 240.5 0 M19.5 0 C71.33 -0.89, 123.87 0.12, 240.5 0 M240.5 0 C252.96 1.6, 259.3 8.16, 260 19.5 M240.5 0 C253.71 0.36, 260.64 7.58, 260 19.5 M260 19.5 C259.34 30.76, 260.21 44.8, 260 58.5 M260 19.5 C260.47 32.19, 259.2 46.39, 260 58.5 M260 58.5 C260.46 72.9, 254.74 76.86, 240.5 78 M260 58.5 C259.58 73.36, 253.52 75.86, 240.5 78 M240.5 78 C188.39 77.63, 139.9 79.71, 19.5 78 M240.5 78 C189.26 77.44, 136.04 76.4, 19.5 78 M19.5 78 C5.04 79.29, -0.97 69.97, 0 58.5 M19.5 78 C7.66 79.55, 0.91 73.18, 0 58.5 M0 58.5 C1.12 47.15, -0.04 34.89, 0 19.5 M0 58.5 C-0.36 49.64, 0.43 40.86, 0 19.5 M0 19.5 C0.35 8.12, 8.26 1.4, 19.5 0 M0 19.5 C2.13 5.32, 5.2 -1.22, 19.5 0" stroke="#1e1e1e" stroke-width="2" fill="none"></path></g><g transform="translate(627.26 312.5) rotate(0 88.74000000000001 22.5)"><text x="88.74" y="16.1103515625" font-family="Helvetica, Segoe UI Emoji" font-size="18px" fill="#1e1e1e" text-anchor="middle" style="white-space: pre;" direction="ltr" dominant-baseline="alphabetic">selected_entities</text><text x="88.74" y="38.6103515625" font-family="Helvetica, Segoe UI Emoji" font-size="18px" fill="#1e1e1e" text-anchor="middle" style="white-space: pre;" direction="ltr" dominant-baseline="alphabetic">候选实体</text></g><g stroke-linecap="round" transform="translate(36 496) rotate(0 180 39)"><path d="M19.5 0 C111.79 -2.06, 200.18 1.76, 340.5 0 C350.29 3.09, 358.54 8.15, 360 19.5 C360.27 35.03, 356.87 48.98, 360 58.5 C359.5 68.37, 351.66 79.65, 340.5 78 C213.7 76.73, 86.5 73.92, 19.5 78 C6.46 78.66, -2.29 73.86, 0 58.5 C2.1 50.42, -0.81 37.64, 0 19.5 C0.68 3.9, 3.58 3.14, 19.5 0" stroke="none" stroke-width="0" fill="#d0bfff"></path><path d="M19.5 0 C119.55 0.37, 221.08 0.86, 340.5 0 M19.5 0 C91.02 -1.64, 162.86 -1.31, 340.5 0 M340.5 0 C351.89 -0.6, 361.24 7.66, 360 19.5 M340.5 0 C352.41 2.17, 360.31 6.62, 360 19.5 M360 19.5 C358.67 29.89, 361.95 39.02, 360 58.5 M360 19.5 C360.21 32.31, 359.91 43.97, 360 58.5 M360 58.5 C360.69 71.05, 352.61 76.32, 340.5 78 M360 58.5 C361.01 69.68, 354.65 78.28, 340.5 78 M340.5 78 C265.08 78.27, 187.08 79.05, 19.5 78 M340.5 78 C272.49 77.44, 204.84 77, 19.5 78 M19.5 78 C5.19 79.18, 0.22 73.09, 0 58.5 M19.5 78 C4.78 77.4, -1.76 71.19, 0 58.5 M0 58.5 C1.4 48.23, 1.19 37.7, 0 19.5 M0 58.5 C-0.48 46.43, -0.06 35.97, 0 19.5 M0 19.5 C0.26 5.38, 7.79 1.65, 19.5 0 M0 19.5 C-1.6 7.32, 4.73 0.11, 19.5 0" stroke="#1e1e1e" stroke-width="2" fill="none"></path></g><g transform="translate(90.72000000000003 512.5) rotate(0 125.27999999999997 22.5)"><text x="125.27999999999999" y="16.1103515625" font-family="Helvetica, Segoe UI Emoji" font-size="18px" fill="#1e1e1e" text-anchor="middle" style="white-space: pre;" direction="ltr" dominant-baseline="alphabetic">_build_community_context</text><text x="125.27999999999999" y="38.6103515625" font-family="Helvetica, Segoe UI Emoji" font-size="18px" fill="#1e1e1e" text-anchor="middle" style="white-space: pre;" direction="ltr" dominant-baseline="alphabetic">社区上下文</text></g><g stroke-linecap="round" transform="translate(536 496) rotate(0 180 46)"><path d="M23 0 C135.59 -2.74, 246.18 -1.94, 337 0 C350.31 0.8, 361.52 9.6, 360 23 C361.39 31.78, 357.91 44.45, 360 69 C360.63 80.92, 349.33 91.1, 337 92 C267.27 93.33, 191.98 97.65, 23 92 C7.47 93.63, -1.88 83.3, 0 69 C-0.38 56.54, -1.91 41.88, 0 23 C2.12 8.48, 9.94 -1.36, 23 0" stroke="none" stroke-width="0" fill="#d0bfff"></path><path d="M23 0 C148.92 -0.21, 272.91 -0.65, 337 0 M23 0 C148.03 2.33, 273.29 2.79, 337 0 M337 0 C354 1.39, 360.89 8.74, 360 23 M337 0 C352.68 1.92, 360.43 6.31, 360 23 M360 23 C360.88 32.94, 360.4 47.13, 360 69 M360 23 C360.66 32.12, 360.41 43.45, 360 69 M360 69 C360.76 84.21, 350.7 91.07, 337 92 M360 69 C357.89 83.28, 353.13 91.99, 337 92 M337 92 C266.36 94.6, 197.7 93.93, 23 92 M337 92 C216.19 89.94, 95.28 90.37, 23 92 M23 92 C9.33 90.42, 1.05 85.99, 0 69 M23 92 C7.75 90.09, 1.71 86.41, 0 69 M0 69 C0.02 53.46, -0.82 38.52, 0 23 M0 69 C0.24 58.88, -0.15 48.62, 0 23 M0 23 C-0.58 8.5, 7.71 -0.7, 23 0 M0 23 C-0.88 7.11, 5.57 -1.31, 23 0" stroke="#1e1e1e" stroke-width="2" fill="none"></path></g><g transform="translate(611.6 519.5) rotate(0 104.39999999999998 22.5)"><text x="104.39999999999999" y="16.1103515625" font-family="Helvetica, Segoe UI Emoji" font-size="18px" fill="#1e1e1e" text-anchor="middle" style="white-space: pre;" direction="ltr" dominant-baseline="alphabetic">_build_local_context</text><text x="104.39999999999999" y="38.6103515625" font-family="Helvetica, Segoe UI Emoji" font-size="18px" fill="#1e1e1e" text-anchor="middle" style="white-space: pre;" direction="ltr" dominant-baseline="alphabetic">实体+关系+协变量</text></g><g stroke-linecap="round" transform="translate(1036 496) rotate(0 180 39)"><path d="M19.5 0 C85.2 3.55, 149.58 3.78, 340.5 0 C351.02 -3.38, 358.81 9.81, 360 19.5 C357.7 35.88, 361.26 48.92, 360 58.5 C362.72 71.95, 352.12 75, 340.5 78 C274.22 78.36, 205.73 77.55, 19.5 78 C6.82 79.47, 2.74 70.88, 0 58.5 C2.9 46.84, 0.48 35.6, 0 19.5 C-1.96 9.09, 4.19 1.92, 19.5 0" stroke="none" stroke-width="0" fill="#d0bfff"></path><path d="M19.5 0 C98.99 -2.54, 178.26 -0.35, 340.5 0 M19.5 0 C134.28 1.75, 249.24 1.46, 340.5 0 M340.5 0 C351.79 1.86, 360.88 8.44, 360 19.5 M340.5 0 C353.05 2.15, 361.02 6.83, 360 19.5 M360 19.5 C361.03 34.1, 361.56 51.31, 360 58.5 M360 19.5 C360.59 33.39, 360.04 49.68, 360 58.5 M360 58.5 C361.8 72.89, 354.16 77.95, 340.5 78 M360 58.5 C358.33 71.05, 353.3 76.12, 340.5 78 M340.5 78 C223.92 78.34, 105.46 79.51, 19.5 78 M340.5 78 C228.68 76.14, 117.97 76.92, 19.5 78 M19.5 78 C5.43 77.07, 0.27 72.49, 0 58.5 M19.5 78 C8.16 76.22, 0.05 69.77, 0 58.5 M0 58.5 C0.26 50.49, -1.91 42.91, 0 19.5 M0 58.5 C0.11 49.25, -0.26 40.95, 0 19.5 M0 19.5 C0.95 7.31, 6.54 -1.06, 19.5 0 M0 19.5 C0.1 7.45, 7.94 -2.06, 19.5 0" stroke="#1e1e1e" stroke-width="2" fill="none"></path></g><g transform="translate(1090.72 512.5) rotate(0 125.27999999999997 22.5)"><text x="125.27999999999999" y="16.1103515625" font-family="Helvetica, Segoe UI Emoji" font-size="18px" fill="#1e1e1e" text-anchor="middle" style="white-space: pre;" direction="ltr" dominant-baseline="alphabetic">_build_text_unit_context</text><text x="125.27999999999999" y="38.6103515625" font-family="Helvetica, Segoe UI Emoji" font-size="18px" fill="#1e1e1e" text-anchor="middle" style="white-space: pre;" direction="ltr" dominant-baseline="alphabetic">文本片段上下文</text></g><g stroke-linecap="round" transform="translate(586 736) rotate(0 130 39)"><path d="M19.5 0 C73.53 -1.15, 131.96 -1.91, 240.5 0 C253.13 2.62, 258.86 6.7, 260 19.5 C258.88 33.6, 260.19 46.87, 260 58.5 C262.11 74.24, 255.46 79.98, 240.5 78 C174.19 82.55, 116.05 78.69, 19.5 78 C7.73 77.2, -3.16 70.72, 0 58.5 C-1.65 47.75, -3.09 44.67, 0 19.5 C0.24 5.68, 8.82 0.94, 19.5 0" stroke="none" stroke-width="0" fill="#e9ecef"></path><path d="M19.5 0 C72.18 -0.38, 121.83 1.95, 240.5 0 M19.5 0 C88.05 1.26, 156.04 0.68, 240.5 0 M240.5 0 C254.78 -1.06, 260.37 5.52, 260 19.5 M240.5 0 C255.18 -1.12, 258.98 7.9, 260 19.5 M260 19.5 C260.24 27.63, 257.69 41.7, 260 58.5 M260 19.5 C258.81 27.27, 258.84 36.7, 260 58.5 M260 58.5 C260.28 72.06, 253.62 78.3, 240.5 78 M260 58.5 C262.19 72.7, 253.26 78.75, 240.5 78 M240.5 78 C173.79 74.56, 108.84 77.08, 19.5 78 M240.5 78 C152.07 77.54, 63.26 77.23, 19.5 78 M19.5 78 C7.96 76.84, -1.16 69.54, 0 58.5 M19.5 78 C6.65 76.13, 2.28 71.93, 0 58.5 M0 58.5 C0.42 44.79, 1.36 27.97, 0 19.5 M0 58.5 C0.57 43.38, 0.43 28.66, 0 19.5 M0 19.5 C-0.21 8.26, 6.5 1.41, 19.5 0 M0 19.5 C-0.28 6.15, 7.74 -1.14, 19.5 0" stroke="#1e1e1e" stroke-width="2" fill="none"></path></g><g transform="translate(648.14 752.5) rotate(0 67.86000000000001 22.5)"><text x="67.86" y="16.1103515625" font-family="Helvetica, Segoe UI Emoji" font-size="18px" fill="#1e1e1e" text-anchor="middle" style="white-space: pre;" direction="ltr" dominant-baseline="alphabetic">final_context</text><text x="67.86" y="38.6103515625" font-family="Helvetica, Segoe UI Emoji" font-size="18px" fill="#1e1e1e" text-anchor="middle" style="white-space: pre;" direction="ltr" dominant-baseline="alphabetic">合并上下文</text></g><g stroke-linecap="round" transform="translate(466 866) rotate(0 250 39)"><path d="M19.5 0 C143.29 1.22, 268.39 2.48, 480.5 0 C491.89 2.1, 496.76 3.7, 500 19.5 C499.97 31.93, 496.18 51.23, 500 58.5 C496.72 72.48, 495.95 80.01, 480.5 78 C326.18 78.85, 173.04 78.24, 19.5 78 C9.83 78.87, 0.71 70.89, 0 58.5 C-3.23 41.41, 0.45 29.11, 0 19.5 C2.49 5.96, 9.84 1.94, 19.5 0" stroke="none" stroke-width="0" fill="#ffec99"></path><path d="M19.5 0 C174.11 -1.09, 327.3 -0.83, 480.5 0 M19.5 0 C120.85 0.23, 223.21 -0.23, 480.5 0 M480.5 0 C491.54 0.68, 498.12 5.11, 500 19.5 M480.5 0 C495.52 0.98, 501.7 7.73, 500 19.5 M500 19.5 C498.25 29.54, 499.39 36.48, 500 58.5 M500 19.5 C498.94 32.64, 500.44 46.63, 500 58.5 M500 58.5 C500.1 70.09, 495.26 78.52, 480.5 78 M500 58.5 C498.3 71.94, 495.27 79.19, 480.5 78 M480.5 78 C356.03 77.19, 231.14 77.68, 19.5 78 M480.5 78 C320.18 76.88, 160.35 77.5, 19.5 78 M19.5 78 C7.6 76.35, 0.98 71.23, 0 58.5 M19.5 78 C8.39 79.32, 1.32 70.74, 0 58.5 M0 58.5 C-0.2 41.19, -1.09 27.44, 0 19.5 M0 58.5 C-0.55 48.14, 0.26 39.52, 0 19.5 M0 19.5 C0.08 8.24, 7.78 -0.91, 19.5 0 M0 19.5 C0.58 7.25, 7.66 -0.36, 19.5 0" stroke="#1e1e1e" stroke-width="2" fill="none"></path></g><g transform="translate(580.28 882.5) rotate(0 135.72000000000003 22.5)"><text x="135.72" y="16.1103515625" font-family="Helvetica, Segoe UI Emoji" font-size="18px" fill="#1e1e1e" text-anchor="middle" style="white-space: pre;" direction="ltr" dominant-baseline="alphabetic">LOCAL_SEARCH_SYSTEM_PROMPT</text><text x="135.72" y="38.6103515625" font-family="Helvetica, Segoe UI Emoji" font-size="18px" fill="#1e1e1e" text-anchor="middle" style="white-space: pre;" direction="ltr" dominant-baseline="alphabetic">Local 提示词</text></g><g stroke-linecap="round" transform="translate(546 996) rotate(0 170 46)"><path d="M23 0 C84.22 -3.51, 142.95 -0.15, 317 0 C334.87 -0.03, 342.96 11.25, 340 23 C338.25 36.62, 342.7 40.65, 340 69 C341.52 85.18, 333.9 91.78, 317 92 C240.39 90.98, 167.93 90.7, 23 92 C7.2 89.73, 1.65 86.1, 0 69 C-2.27 60.78, -1.71 47.79, 0 23 C-0.66 11.14, 6.19 -2.4, 23 0" stroke="none" stroke-width="0" fill="#b2f2bb"></path><path d="M23 0 C97.72 1.21, 174.85 -0.68, 317 0 M23 0 C120.15 -0.5, 219.19 -0.29, 317 0 M317 0 C331.5 -1.81, 341.38 6.17, 340 23 M317 0 C334.34 -1.45, 338.42 7.74, 340 23 M340 23 C338.88 35.63, 339.87 46.14, 340 69 M340 23 C340.84 32.05, 339.12 42.51, 340 69 M340 69 C340.01 83.94, 330.45 93.45, 317 92 M340 69 C340.21 84.64, 334.06 93.19, 317 92 M317 92 C219.03 90.92, 121.9 91.82, 23 92 M317 92 C248.42 90.68, 180.06 89.26, 23 92 M23 92 C8.23 93.58, 1.73 82.75, 0 69 M23 92 C8.02 94.14, 0.03 85.75, 0 69 M0 69 C0.4 57.69, -1.12 48.97, 0 23 M0 69 C-1.23 54.26, -0.58 40.16, 0 23 M0 23 C1.42 7.75, 9.02 -0.44, 23 0 M0 23 C-1.95 9.27, 7.55 -0.29, 23 0" stroke="#1e1e1e" stroke-width="2" fill="none"></path></g><g transform="translate(622.04 1019.5) rotate(0 93.95999999999998 22.5)"><text x="93.96" y="16.1103515625" font-family="Helvetica, Segoe UI Emoji" font-size="18px" fill="#1e1e1e" text-anchor="middle" style="white-space: pre;" direction="ltr" dominant-baseline="alphabetic">LocalSearch.search</text><text x="93.96" y="38.6103515625" font-family="Helvetica, Segoe UI Emoji" font-size="18px" fill="#1e1e1e" text-anchor="middle" style="white-space: pre;" direction="ltr" dominant-baseline="alphabetic">流式生成</text></g><g stroke-linecap="round" transform="translate(496 1136) rotate(0 220 39)"><path d="M19.5 0 C115.54 3.72, 210.96 2.37, 420.5 0 C435.89 0.64, 437.4 9.08, 440 19.5 C440.27 35.59, 441.07 48.3, 440 58.5 C440.85 74, 431.24 78.56, 420.5 78 C336.88 76.26, 256.11 76.03, 19.5 78 C6.51 81.35, 2.28 73.12, 0 58.5 C-0.34 47.89, 0.83 31.46, 0 19.5 C-0.35 4.11, 3.53 3.47, 19.5 0" stroke="none" stroke-width="0" fill="#ffc9c9"></path><path d="M19.5 0 C147.1 -2.87, 277.08 -0.98, 420.5 0 M19.5 0 C162.8 -1.86, 305.69 -2.04, 420.5 0 M420.5 0 C433.88 1.88, 441.02 4.73, 440 19.5 M420.5 0 C432.69 0, 440.62 8.01, 440 19.5 M440 19.5 C440.49 27.82, 438.86 36.92, 440 58.5 M440 19.5 C441.1 27.89, 440.35 37.07, 440 58.5 M440 58.5 C441.9 70.4, 432.72 76.93, 420.5 78 M440 58.5 C437.94 72.98, 435.26 75.8, 420.5 78 M420.5 78 C330.54 79.17, 240.11 79.8, 19.5 78 M420.5 78 C289.31 78.92, 157.01 78.03, 19.5 78 M19.5 78 C7.87 76.04, -0.2 70.84, 0 58.5 M19.5 78 C5.3 80.25, -2.14 73.41, 0 58.5 M0 58.5 C1.11 48.49, 1.44 37.09, 0 19.5 M0 58.5 C-0.77 46.13, 1.03 32.37, 0 19.5 M0 19.5 C0.29 7.75, 8.18 -0.97, 19.5 0 M0 19.5 C0.38 6.21, 8.18 -1.7, 19.5 0" stroke="#1e1e1e" stroke-width="2" fill="none"></path></g><g transform="translate(575.06 1152.5) rotate(0 140.94 22.5)"><text x="140.94" y="16.1103515625" font-family="Helvetica, Segoe UI Emoji" font-size="18px" fill="#1e1e1e" text-anchor="middle" style="white-space: pre;" direction="ltr" dominant-baseline="alphabetic">Final answer with Data refs</text><text x="140.94" y="38.6103515625" font-family="Helvetica, Segoe UI Emoji" font-size="18px" fill="#1e1e1e" text-anchor="middle" style="white-space: pre;" direction="ltr" dominant-baseline="alphabetic">最终答案（带引用）</text></g><g stroke-linecap="round"><g transform="translate(716 114) rotate(0 0 26)"><path d="M0.32 -0.34 C0.48 8.47, 0.89 43.61, 1.03 52.22 M-0.97 -1.56 C-0.89 6.91, 0.29 41.23, 0.62 50.22" stroke="#1e1e1e" stroke-width="2" fill="none"></path></g><g transform="translate(716 114) rotate(0 0 26)"><path d="M-8.75 27.04 C-6.53 35.87, -2.71 43.26, 0.62 50.22 M-8.75 27.04 C-5.66 33.07, -3.96 39.3, 0.62 50.22" stroke="#1e1e1e" stroke-width="2" fill="none"></path></g><g transform="translate(716 114) rotate(0 0 26)"><path d="M8.34 26.44 C5.29 35.5, 3.84 43.08, 0.62 50.22 M8.34 26.44 C7.2 32.66, 4.67 39.04, 0.62 50.22" stroke="#1e1e1e" stroke-width="2" fill="none"></path></g></g><mask></mask><g stroke-linecap="round"><g transform="translate(716 244) rotate(0 0 26)"><path d="M-0.74 -0.68 C-0.7 7.96, -0.83 43.74, -0.82 52.67 M1.07 1.58 C1.59 9.79, 1.94 42.66, 1.46 50.9" stroke="#1e1e1e" stroke-width="2" fill="none"></path></g><g transform="translate(716 244) rotate(0 0 26)"><path d="M-6.67 27.26 C-5.91 30.95, -1.94 36.19, 1.46 50.9 M-6.67 27.26 C-2.79 36.67, -0.47 45.98, 1.46 50.9" stroke="#1e1e1e" stroke-width="2" fill="none"></path></g><g transform="translate(716 244) rotate(0 0 26)"><path d="M10.42 27.56 C7.57 31.08, 7.92 36.26, 1.46 50.9 M10.42 27.56 C7.88 36.86, 3.77 46.05, 1.46 50.9" stroke="#1e1e1e" stroke-width="2" fill="none"></path></g></g><mask></mask><g stroke-linecap="round"><g transform="translate(586 335) rotate(0 -95 100)"><path d="M-1.05 0.63 C-32.73 33.82, -157.53 166.34, -189.12 199.75 M0.6 -0.09 C-31.24 33.23, -157.56 167.91, -189.6 201.16" stroke="#1e1e1e" stroke-width="2" fill="none"></path></g><g transform="translate(586 335) rotate(0 -95 100)"><path d="M-179.63 178.24 C-182.24 188.3, -187.48 194.51, -189.6 201.16 M-179.63 178.24 C-183.61 187.64, -186.46 195.55, -189.6 201.16" stroke="#1e1e1e" stroke-width="2" fill="none"></path></g><g transform="translate(586 335) rotate(0 -95 100)"><path d="M-167.23 190.01 C-174.6 195.51, -184.53 197.25, -189.6 201.16 M-167.23 190.01 C-176.2 194.83, -183.93 198.1, -189.6 201.16" stroke="#1e1e1e" stroke-width="2" fill="none"></path></g></g><mask></mask><g stroke-linecap="round"><g transform="translate(716 374) rotate(0 0 61)"><path d="M0.84 0.08 C0.63 20.18, -0.55 100.86, -0.84 121.01 M-0.17 -0.92 C-0.05 19.26, 1.14 101.58, 1.42 122.03" stroke="#1e1e1e" stroke-width="2" fill="none"></path></g><g transform="translate(716 374) rotate(0 0 61)"><path d="M-7.46 98.66 C-4.24 105.11, -3.01 112.93, 1.42 122.03 M-7.46 98.66 C-5.74 102.75, -2.57 109.18, 1.42 122.03" stroke="#1e1e1e" stroke-width="2" fill="none"></path></g><g transform="translate(716 374) rotate(0 0 61)"><path d="M9.64 98.42 C7.07 105.07, 2.5 112.98, 1.42 122.03 M9.64 98.42 C7.68 102.73, 7.17 109.21, 1.42 122.03" stroke="#1e1e1e" stroke-width="2" fill="none"></path></g></g><mask></mask><g stroke-linecap="round"><g transform="translate(846 335) rotate(0 95 100)"><path d="M1.02 -0.16 C32.71 33.07, 158.55 167.02, 190.14 200.49 M0.1 -1.29 C31.64 32.09, 157.59 165.3, 189.27 198.63" stroke="#1e1e1e" stroke-width="2" fill="none"></path></g><g transform="translate(846 335) rotate(0 95 100)"><path d="M166.9 187.46 C173.48 190.87, 181.31 195, 189.27 198.63 M166.9 187.46 C174.13 190.78, 182.2 195.88, 189.27 198.63" stroke="#1e1e1e" stroke-width="2" fill="none"></path></g><g transform="translate(846 335) rotate(0 95 100)"><path d="M179.32 175.69 C182.26 182.76, 186.35 190.43, 189.27 198.63 M179.32 175.69 C182.22 183.24, 185.89 192.51, 189.27 198.63" stroke="#1e1e1e" stroke-width="2" fill="none"></path></g></g><mask></mask><g stroke-linecap="round"><g transform="translate(396 535) rotate(0 95 120)"><path d="M0.39 -0.58 C32.17 39.53, 158.4 199.71, 190.1 239.71 M-0.87 1.73 C30.82 42.11, 157.37 201.31, 189.2 241.09" stroke="#1e1e1e" stroke-width="2" fill="none"></path></g><g transform="translate(396 535) rotate(0 95 120)"><path d="M167.88 228.05 C172.11 231.38, 177.87 235.44, 189.2 241.09 M167.88 228.05 C172.88 231.89, 178.26 233.6, 189.2 241.09" stroke="#1e1e1e" stroke-width="2" fill="none"></path></g><g transform="translate(396 535) rotate(0 95 120)"><path d="M181.25 217.39 C182.07 223.42, 184.52 230.12, 189.2 241.09 M181.25 217.39 C182.82 223.94, 184.88 228.31, 189.2 241.09" stroke="#1e1e1e" stroke-width="2" fill="none"></path></g></g><mask></mask><g stroke-linecap="round"><g transform="translate(716 588) rotate(0 0 74)"><path d="M-0.25 0.35 C-0.08 25.04, 0.39 123.68, 0.54 148.25 M1.82 -0.5 C1.92 23.78, 0.14 121.35, -0.12 146.26" stroke="#1e1e1e" stroke-width="2" fill="none"></path></g><g transform="translate(716 588) rotate(0 0 74)"><path d="M-8.33 122.65 C-5.58 129.68, -3.63 136.02, -0.12 146.26 M-8.33 122.65 C-6.41 128.42, -2.79 136.68, -0.12 146.26" stroke="#1e1e1e" stroke-width="2" fill="none"></path></g><g transform="translate(716 588) rotate(0 0 74)"><path d="M8.77 122.9 C7.09 129.83, 4.62 136.11, -0.12 146.26 M8.77 122.9 C5.89 128.55, 4.7 136.75, -0.12 146.26" stroke="#1e1e1e" stroke-width="2" fill="none"></path></g></g><mask></mask><g stroke-linecap="round"><g transform="translate(1036 535) rotate(0 -95 120)"><path d="M0.06 1.18 C-31.51 40.85, -157.26 199.44, -189.05 239.04 M-1.38 0.76 C-33.04 41.06, -157.77 200.29, -189.5 240.08" stroke="#1e1e1e" stroke-width="2" fill="none"></path></g><g transform="translate(1036 535) rotate(0 -95 120)"><path d="M-181.66 216.34 C-182.04 225.69, -188.17 230.76, -189.5 240.08 M-181.66 216.34 C-182.26 220.47, -183.75 225.66, -189.5 240.08" stroke="#1e1e1e" stroke-width="2" fill="none"></path></g><g transform="translate(1036 535) rotate(0 -95 120)"><path d="M-168.23 226.94 C-173.1 232.83, -183.62 234.43, -189.5 240.08 M-168.23 226.94 C-171.63 229, -175.82 232.06, -189.5 240.08" stroke="#1e1e1e" stroke-width="2" fill="none"></path></g></g><mask></mask><g stroke-linecap="round"><g transform="translate(716 814) rotate(0 0 26)"><path d="M0.56 1.16 C0.49 10, 0.48 44.62, 0.37 53.01 M-0.61 0.73 C-0.87 9.25, -0.33 42.78, -0.38 51.42" stroke="#1e1e1e" stroke-width="2" fill="none"></path></g><g transform="translate(716 814) rotate(0 0 26)"><path d="M-9.07 27.98 C-3.94 37.17, -1.01 45.02, -0.38 51.42 M-9.07 27.98 C-6.14 34.52, -3.96 39.33, -0.38 51.42" stroke="#1e1e1e" stroke-width="2" fill="none"></path></g><g transform="translate(716 814) rotate(0 0 26)"><path d="M8.03 27.88 C6.88 37.18, 3.54 45.07, -0.38 51.42 M8.03 27.88 C6.55 34.35, 4.33 39.19, -0.38 51.42" stroke="#1e1e1e" stroke-width="2" fill="none"></path></g></g><mask></mask><g stroke-linecap="round"><g transform="translate(716 944) rotate(0 0 26)"><path d="M-0.61 -0.41 C-0.66 8.26, -0.44 42.55, -0.5 51.13 M1.26 -1.67 C1.03 7.2, -1.74 43.28, -1.72 52.2" stroke="#1e1e1e" stroke-width="2" fill="none"></path></g><g transform="translate(716 944) rotate(0 0 26)"><path d="M-9.26 28.37 C-7.99 34.27, -6.64 40.2, -1.72 52.2 M-9.26 28.37 C-7.44 33.88, -6.78 39.1, -1.72 52.2" stroke="#1e1e1e" stroke-width="2" fill="none"></path></g><g transform="translate(716 944) rotate(0 0 26)"><path d="M7.82 29.09 C4.3 34.71, 0.83 40.43, -1.72 52.2 M7.82 29.09 C5.88 34.56, 2.78 39.63, -1.72 52.2" stroke="#1e1e1e" stroke-width="2" fill="none"></path></g></g><mask></mask><g stroke-linecap="round"><g transform="translate(716 1088) rotate(0 0 24)"><path d="M0.31 0.05 C0.28 8.02, -0.17 39.78, -0.21 47.8 M-0.19 -0.41 C-0.32 7.65, -0.74 40.46, -0.75 48.4" stroke="#1e1e1e" stroke-width="2" fill="none"></path></g><g transform="translate(716 1088) rotate(0 0 24)"><path d="M-8.77 25.78 C-6.27 32.21, -4.3 39.54, -0.75 48.4 M-8.77 25.78 C-6.66 33.02, -3.06 40.88, -0.75 48.4" stroke="#1e1e1e" stroke-width="2" fill="none"></path></g><g transform="translate(716 1088) rotate(0 0 24)"><path d="M7.64 25.91 C5.18 32.35, 2.2 39.64, -0.75 48.4 M7.64 25.91 C4.32 33.05, 2.48 40.88, -0.75 48.4" stroke="#1e1e1e" stroke-width="2" fill="none"></path></g></g><mask></mask></svg>